<?xml version="1.0" encoding="UTF-8" standalone="no"?>
<!-- Created with Inkscape (http://www.inkscape.org/) -->

<svg
   xmlns:dc="http://purl.org/dc/elements/1.1/"
   xmlns:cc="http://creativecommons.org/ns#"
   xmlns:rdf="http://www.w3.org/1999/02/22-rdf-syntax-ns#"
   xmlns:svg="http://www.w3.org/2000/svg"
   xmlns="http://www.w3.org/2000/svg"
   xmlns:sodipodi="http://sodipodi.sourceforge.net/DTD/sodipodi-0.dtd"
   xmlns:inkscape="http://www.inkscape.org/namespaces/inkscape"
   id="svg2"
   version="1.1"
   inkscape:version="0.91 r13725"
   xml:space="preserve"
   width="274"
   height="242.00002"
   viewBox="0 0 274 242.00002"
   sodipodi:docname="esper_silouette.svg"><metadata
     id="metadata8"><rdf:RDF><cc:Work
         rdf:about=""><dc:format>image/svg+xml</dc:format><dc:type
           rdf:resource="http://purl.org/dc/dcmitype/StillImage" /><dc:title></dc:title></cc:Work></rdf:RDF></metadata><defs
     id="defs6" /><sodipodi:namedview
     pagecolor="#ffffff"
     bordercolor="#666666"
     borderopacity="1"
     objecttolerance="10"
     gridtolerance="10"
     guidetolerance="10"
     inkscape:pageopacity="0"
     inkscape:pageshadow="2"
     inkscape:window-width="798"
     inkscape:window-height="879"
     id="namedview4"
     showgrid="false"
     inkscape:zoom="0.97520655"
     inkscape:cx="139.05085"
     inkscape:cy="121.00001"
     inkscape:window-x="0"
     inkscape:window-y="19"
     inkscape:window-maximized="0"
     inkscape:current-layer="g10" /><g
     id="g10"
     inkscape:groupmode="layer"
     inkscape:label="esper_silouette"
     transform="matrix(1.25,0,0,-1.25,0,242.00001)"><g
       id="g12"><path
         d="M 165.66,79.127 C 165.195,77.123 173.75,63.702 176,55.6 c 0,-0.902 1.723,-1.191 8.172,-1.371 2.719,-0.07 5.23,-0.199 8.016,-0.613 9.523,-13.325 6.359,-35.754 5.281,-43.414 -1.489,-9.774 -0.621,-9.403 -21.844,-9.403 l -17.91,0 c -3.059,2.785 -3.797,7.266 -3.317,11.199 L 68,11.998 C 68.516,7.354 67.176,0.573 61.34,0.459 55.848,-0.021 50.301,0.084 44.785,-0.002 c -16.941,0 -17.328,0.04 -18.859,1.801 -6.156,8.145 -3.004,18.942 -3.871,28.352 0.363,7.062 -1.348,15.484 3.117,21.5 1.933,2.254 2.351,2.367 10.223,2.75 7.933,0.387 8.214,0.465 8.476,2.328 2.633,5.523 4.895,11.242 8.106,16.473 1.242,2.074 1.335,3.207 0.703,8.398 -0.407,3.301 -1.082,7.262 -1.504,8.801 -0.422,1.539 -0.77,6.082 -0.77,10.09 -0.008,11.406 2.61,13.382 13.524,10.211 5.453,-1.586 7.64,-2.45 11.269,-4.446 7.606,-4.176 9.836,-4.824 13.199,-3.832 7.899,2.328 7.821,2.16 4.684,10.168 -9.363,18.297 -24.93,32.449 -40.984,44.828 -2.598,2.395 -3.614,1.93 -4.098,-1.882 -0.348,-2.715 -0.699,-3.172 -2.613,-3.391 -1.668,-0.192 -2.504,-0.953 -3.399,-3.094 -1.054,-2.527 -1.426,-2.785 -3.386,-2.32 -4.157,0.976 -4.598,0.894 -4.856,-0.934 -0.316,-2.226 -0.769,-2.246 -3.035,-0.117 l -1.793,1.688 -1.051,-1.688 c -0.762,-1.215 -1.871,-1.684 -3.996,-1.684 -2.617,0 -3.004,0.266 -3.469,2.391 -0.496,2.266 -2.004,4.176 -2.004,2.543 0,-1.004 -3.531,-1.859 -5.136,-1.246 -0.692,0.266 -1.262,1.348 -1.262,2.398 0,1.34 -0.449,1.914 -1.504,1.914 -1.969,0 -3.09,1.446 -3.426,4.403 -0.211,1.863 -0.718,2.461 -2.269,2.668 -3.012,0.402 -3.465,1.285 -2.305,4.496 0.719,1.992 0.789,3.101 0.223,3.48 -2.664,1.774 -1.219,7.028 2.363,8.602 1.496,0.656 1.684,1.285 1.449,4.902 l -0.269,4.145 3.05,0.254 c 2.918,0.242 3.918,1.183 5.36,5.05 0.176,0.469 1.281,0.239 2.672,-0.558 2.265,-1.301 2.426,-1.293 3.711,0.211 0.742,0.859 1.343,1.922 1.343,2.359 0,1.52 3.153,0.778 4.082,-0.961 l 0.938,-1.754 1.418,1.754 c 2.039,2.512 4.234,2.227 5.336,-0.695 0.855,-2.27 1.133,-2.406 3.777,-1.91 2.676,0.5 2.852,0.406 2.852,-1.555 0,-1.855 0.312,-2.09 2.801,-2.09 2.488,0 2.796,-0.23 2.796,-2.109 0,-1.219 0.844,-2.887 2,-3.961 1.981,-1.832 2.75,-5.129 1.204,-5.129 -0.442,0 -0.801,-0.539 -0.801,-1.199 0,-0.66 0.336,-1.199 0.746,-1.199 1.25,0 1.926,-3.34 0.812,-4.028 -0.816,-0.504 -0.82,-1.101 -0.011,-3.051 0.554,-1.335 0.769,-2.808 0.48,-3.273 -0.285,-0.469 -0.012,-0.465 0.324,-0.852 19.063,-14.25 38.067,-31.468 46.325,-54.511 3.996,0.929 7.668,1.398 12.156,1.383 4.414,0.043 8.101,-0.739 12.156,-1.485 8.914,23.156 28.262,40.688 47.332,55.543 -0.262,0.422 -0.023,1.86 0.531,3.195 0.809,1.95 0.805,2.547 -0.011,3.051 -1.114,0.688 -0.438,4.028 0.812,4.028 0.41,0 0.746,0.539 0.746,1.199 0,0.66 -0.359,1.199 -0.801,1.199 -1.546,0 -0.777,3.297 1.204,5.129 1.156,1.074 2,2.742 2,3.961 0,1.812 0.339,2.109 2.398,2.109 2.055,0 2.398,0.301 2.398,2.09 0,1.961 0.176,2.055 2.856,1.555 2.644,-0.496 2.918,-0.36 3.773,1.91 1.129,2.984 4.016,3.312 6.137,0.695 l 1.418,-1.754 0.938,1.754 c 0.941,1.762 3.281,2.442 3.281,0.949 0,-0.437 0.668,-1.468 1.488,-2.285 1.297,-1.297 1.734,-1.351 3.399,-0.429 2.609,1.445 2.917,1.386 3.574,-0.68 0.8,-2.524 2.695,-3.75 5.84,-3.777 l 2.703,-0.028 -0.391,-4.035 c -0.305,-3.172 -0.098,-4.238 0.965,-5 3.578,-2.559 4.652,-7.019 2.101,-8.719 -0.566,-0.379 -0.496,-1.488 0.223,-3.48 1.117,-3.082 0.715,-4.027 -1.902,-4.492 -1.102,-0.196 -1.688,-1.035 -1.871,-2.68 -0.336,-2.949 -1.461,-4.395 -3.426,-4.395 -1.051,0 -1.504,-0.574 -1.504,-1.906 0,-1.297 -0.566,-2.054 -1.777,-2.371 -2.157,-0.562 -5.422,0.168 -5.422,1.211 0,1.633 -1.508,-0.277 -2.004,-2.543 -0.449,-2.043 -0.895,-2.391 -3.067,-2.391 -1.722,0 -2.886,0.547 -3.597,1.684 l -1.051,1.688 -1.793,-1.688 c -2.309,-2.168 -3.516,-2.133 -3.832,0.117 -0.262,1.828 -0.703,1.91 -4.859,0.934 -1.957,-0.461 -2.332,-0.207 -3.387,2.316 -0.785,1.875 -1.797,2.922 -2.996,3.094 -1.449,0.203 -1.895,0.891 -2.215,3.395 -0.469,3.687 -1.355,3.753 -3.738,2.117 -17.453,-13.95 -30.242,-22.836 -42.344,-46.418 -3.281,-7.223 -3.422,-7.289 10.004,-8.824 1.484,0.136 8.25,4.777 12.879,6.003 2.418,0.747 5.758,1.856 7.414,2.469 5.691,2.106 10.406,1.246 11.812,-2.148 1.067,-9.891 0.086,-19.551 -2.367,-29.61 z"
         style="fill:#000000;fill-opacity:1;fill-rule:nonzero;stroke:none"
         id="path14"
         inkscape:connector-curvature="0" /></g></g></svg>