<?xml version="1.0" encoding="UTF-8" standalone="no"?>
<!-- Created with Inkscape (http://www.inkscape.org/) -->

<svg
   xmlns:dc="http://purl.org/dc/elements/1.1/"
   xmlns:cc="http://creativecommons.org/ns#"
   xmlns:rdf="http://www.w3.org/1999/02/22-rdf-syntax-ns#"
   xmlns:svg="http://www.w3.org/2000/svg"
   xmlns="http://www.w3.org/2000/svg"
   xmlns:sodipodi="http://sodipodi.sourceforge.net/DTD/sodipodi-0.dtd"
   xmlns:inkscape="http://www.inkscape.org/namespaces/inkscape"
   id="svg3484"
   version="1.1"
   inkscape:version="0.91 r13725"
   width="540"
   height="360"
   viewBox="0 0 540 360"
   sodipodi:docname="logo_finito.svg">
  <metadata
     id="metadata3490">
    <rdf:RDF>
      <cc:Work
         rdf:about="">
        <dc:format>image/svg+xml</dc:format>
        <dc:type
           rdf:resource="http://purl.org/dc/dcmitype/StillImage" />
        <dc:title></dc:title>
      </cc:Work>
    </rdf:RDF>
  </metadata>
  <defs
     id="defs3488" />
  <sodipodi:namedview
     pagecolor="#ffffff"
     bordercolor="#666666"
     borderopacity="1"
     objecttolerance="10"
     gridtolerance="10"
     guidetolerance="10"
     inkscape:pageopacity="0"
     inkscape:pageshadow="2"
     inkscape:window-width="1598"
     inkscape:window-height="879"
     id="namedview3486"
     showgrid="false"
     inkscape:zoom="1.3111111"
     inkscape:cx="261.35192"
     inkscape:cy="123.59992"
     inkscape:window-x="0"
     inkscape:window-y="19"
     inkscape:window-maximized="1"
     inkscape:current-layer="svg3484" />
  <path
     style="fill:none;stroke:#000000;stroke-width:1.01250005"
     d="m 27.366962,76.980681 c 3.513375,-1.954125 7.209,-3.412125 11.076749,-4.47525 7.259625,-1.9845 14.671125,-2.642625 22.123126,-3.412125 40.429123,-3.4425 94.010623,7.776 133.407003,17.485877 l 27.621,7.036875 7.0875,2.4705 7.0875,1.5795 12.15,4.232252 9.1125,2.43 40.5,14.77238 33.372,12.15 8.181,4.0095 9.072,3.3615 c 26.649,11.259 53.541,23.9355 78.6915,38.29275 29.27138,16.71637 65.71125,38.74837 86.93325,65.043"
     id="path6899" />
  <g
     id="g3849">
    <path
       style="fill:#fefdfe"
       d="M 245,333.56257 C 211.80484,327.64637 186.09285,314.16953 161.96166,290.03834 143.50864,271.58532 132.10303,253.50252 124.49924,230.64427 118.32893,212.09531 117.5,206.09743 117.5,180 c 0,-26.09743 0.82893,-32.09531 6.99924,-50.64427 7.60379,-22.85825 19.0094,-40.941046 37.46242,-59.39407 C 180.41468,51.508637 198.49748,40.103033 221.35573,32.49924 239.90469,26.328931 245.90257,25.5 272,25.5 c 26.09743,0 32.09531,0.828931 50.64427,6.99924 22.85825,7.603793 40.94105,19.009397 59.39407,37.46242 18.45302,18.453024 29.85863,36.53582 37.46242,59.39407 C 425.67107,147.90469 426.5,153.90257 426.5,180 c 0,18.89574 -0.35509,25.16537 -1.81237,32 -4.25937,19.97634 -12.61138,39.6171 -24.026,56.5 -7.99764,11.82898 -28.33265,32.16399 -40.16163,40.16163 -16.45188,11.1232 -35.90086,19.49175 -55.5,23.88067 -10.16742,2.27683 -49.22323,2.94095 -60,1.02027 z"
       id="path3863"
       inkscape:connector-curvature="0" />
    <path
       style="fill:#fefede"
       d="M 245,333.56257 C 211.80484,327.64637 186.09285,314.16953 161.96166,290.03834 143.50864,271.58532 132.10303,253.50252 124.49924,230.64427 118.32893,212.09531 117.5,206.09743 117.5,180 c 0,-26.09743 0.82893,-32.09531 6.99924,-50.64427 7.60379,-22.85825 19.0094,-40.941046 37.46242,-59.39407 C 180.41468,51.508637 198.49748,40.103033 221.35573,32.49924 239.90469,26.328931 245.90257,25.5 272,25.5 c 26.09743,0 32.09531,0.828931 50.64427,6.99924 22.85825,7.603793 40.94105,19.009397 59.39407,37.46242 18.45302,18.453024 29.85863,36.53582 37.46242,59.39407 C 425.67107,147.90469 426.5,153.90257 426.5,180 c 0,18.89574 -0.35509,25.16537 -1.81237,32 -4.25937,19.97634 -12.61138,39.6171 -24.026,56.5 -7.99764,11.82898 -28.33265,32.16399 -40.16163,40.16163 -16.45188,11.1232 -35.90086,19.49175 -55.5,23.88067 -10.16742,2.27683 -49.22323,2.94095 -60,1.02027 z m 60.10078,-9.70417 c 1.86957,-0.62789 4.07422,-1.69245 4.89922,-2.3657 0.825,-0.67324 2.7375,-1.51809 4.25,-1.87744 1.5125,-0.35935 2.75,-1.09479 2.75,-1.63431 0,-0.53952 0.69561,-0.98095 1.54581,-0.98095 0.85019,0 3.65911,-1.125 6.24204,-2.5 2.58293,-1.375 5.43222,-2.5 6.33175,-2.5 0.89953,0 2.19571,-0.675 2.8804,-1.5 0.68469,-0.825 1.86479,-1.5 2.62244,-1.5 0.75766,0 1.37756,-0.41704 1.37756,-0.92676 0,-0.50972 1.2375,-1.57078 2.75,-2.35792 10.80561,-5.62351 13.96515,-7.51764 16.99331,-10.18747 C 361.82215,291.93168 367,284.5443 367,282.32107 c 0,-0.86827 1.575,-3.32201 3.5,-5.45275 1.925,-2.13074 3.5,-4.26872 3.5,-4.75106 0,-0.48233 2.44687,-2.72437 5.43748,-4.98231 8.25043,-6.22913 12.49109,-11.02234 15.65405,-17.69375 1.57989,-3.33234 4.00561,-7.12328 5.3905,-8.42431 1.38488,-1.30104 2.52021,-2.84958 2.52294,-3.4412 0.003,-0.59163 1.08184,-2.42163 2.39802,-4.06668 1.8084,-2.26025 2.26418,-3.78514 1.86556,-6.24153 -0.29012,-1.78781 -0.0606,-3.81686 0.50994,-4.50902 1.96346,-2.38178 6.10836,-19.08371 6.17796,-24.89415 0.0239,-1.99963 0.71578,-4.92463 1.53739,-6.5 0.82161,-1.57537 1.49661,-5.18931 1.5,-8.03098 0.004,-3.21349 0.47426,-5.3227 1.2444,-5.57941 0.98432,-0.32811 0.98432,-0.97004 0,-3.13039 C 417.55721,173.12883 417,171.02096 417,169.93938 c 0,-1.08159 -0.44031,-2.74791 -0.97846,-3.70295 C 413.92158,162.50972 411,151.44871 411,147.22505 c 0,-3.93745 -0.57055,-5.06891 -5,-9.91543 -2.75,-3.00894 -5,-6.32365 -5,-7.36604 0,-1.04238 -0.89832,-3.36862 -1.99626,-5.16941 -1.09795,-1.80079 -1.99795,-4.26011 -2,-5.46515 -0.002,-1.20504 -0.45374,-2.4691 -1.00374,-2.80902 -0.55,-0.33992 -1,-1.73882 -1,-3.10868 C 395,109.33238 392.81236,105.65011 383.47961,94 376.62959,85.449078 366.99998,71.815246 366.99425,70.65962 366.98425,68.641245 356.70296,59.445176 351.5,56.800826 348.75,55.403168 343.125,53.498147 339,52.567445 331.37584,50.847247 323,47.316464 323,45.822745 323,45.370235 322.05693,45 320.90429,45 c -1.15264,0 -3.29014,-0.625181 -4.75,-1.389292 C 314.69443,42.846597 311.025,41.697043 308,41.056142 299.47277,39.249494 292.76894,37.462991 289.6849,36.175352 288.1366,35.528909 286.24527,35 285.48195,35 c -0.76331,0 -2.54942,-0.529251 -3.96913,-1.176114 -4.09906,-1.867655 -38.35236,2.212485 -43.74925,5.211267 C 236.80853,39.565819 235.29393,40 234.39778,40 c -2.16971,0 -9.90519,2.456474 -26.65516,8.464605 -2.81265,1.008884 -8.03365,4.532957 -12.77211,8.620922 C 190.56242,60.888487 186.49105,64 185.92303,64 183.57788,64 176,68.153085 176,69.438351 c 0,0.763601 -3.57756,4.711986 -7.95013,8.774189 -6.91788,6.42685 -8.0996,8.028639 -9.10137,12.336643 -2.47674,10.650947 -3.46092,13.119027 -7.08188,17.759597 C 147.28662,114.17845 140,128.95854 140,132.3789 c 0,3.4099 -2.86844,15.52454 -4.27594,18.05914 -1.41359,2.54555 -4.3797,13.19472 -5.72711,20.56196 -0.55325,3.025 -1.42707,7.75 -1.94182,10.5 -0.51475,2.75 -0.96273,10.3128 -0.99552,16.80623 L 127,210.11246 l 4.5,1.99056 4.5,1.99057 0,9.81812 0,9.81812 4.75,2.43954 4.75,2.43953 0.30284,5.79409 c 0.21166,4.0495 0.88913,6.42338 2.25,7.88411 1.07094,1.14951 1.94716,2.48659 1.94716,2.97129 0,4.2068 20.54197,24.6131 27.2073,27.0276 1.56247,0.566 5.44123,5.66723 8.53698,11.22758 1.04573,1.87825 11.77481,7.86256 22.25572,12.41348 1.375,0.59704 4.3,2.2269 6.5,3.62191 2.2,1.39501 4.7875,2.79466 5.75,3.11034 0.9625,0.31568 1.75,0.9214 1.75,1.34604 0,0.42464 1.59865,1.07199 3.55256,1.43854 1.9539,0.36656 3.80205,1.31664 4.10699,2.11129 0.30493,0.79466 1.37972,1.44483 2.38842,1.44483 1.0087,0 2.07595,0.39148 2.37166,0.86996 0.29572,0.47848 5.38478,1.19682 11.30902,1.59631 5.92424,0.3995 13.69635,1.31393 17.27135,2.03207 8.24979,1.65722 37.49367,1.90732 42.10078,0.36006 z m -42.20059,-1.33091 c -3.6299,-0.74025 -11.2799,-1.67271 -17,-2.07214 -5.7201,-0.39944 -10.62519,-1.00279 -10.90019,-1.3408 -0.52727,-0.64807 -4.83619,-2.79426 -11.5,-5.72794 -2.2,-0.96853 -6.61932,-3.47673 -9.82071,-5.57379 C 210.47789,305.71577 207.22761,304 206.45644,304 204.42874,304 187,294.87106 187,293.80897 c 0,-1.5826 -8.09518,-11.90954 -9.82638,-12.53541 -5.40651,-1.95459 -22.12181,-17.80988 -25.13758,-23.84426 -0.80518,-1.61112 -2.26768,-4.12377 -3.25,-5.58367 C 147.61645,250.10742 147,247.31696 147,243.76087 l 0,-5.43038 -4.93438,-2.41525 -4.93438,-2.41524 -0.31562,-10 -0.31562,-10 -4.25,-1.92119 -4.25,-1.92118 0.0596,-11.57882 c 0.0328,-6.36834 0.48077,-13.82881 0.99552,-16.57881 0.51475,-2.75 1.35228,-7.475 1.86118,-10.5 0.5089,-3.025 1.63591,-7.46908 2.50448,-9.87573 C 134.28935,158.71762 135,155.68012 135,154.37427 135,153.06842 135.37797,152 135.83994,152 137.14171,152 141,137.98477 141,133.2561 141,129.00361 143.71369,123 145.63586,123 c 1.31687,0 1.38299,-0.27237 0.36414,-1.5 -0.71546,-0.86207 -0.81363,-1.5 -0.23085,-1.5 0.55772,0 1.30515,-1.15991 1.66096,-2.57757 C 148.13316,114.62127 154.93593,105 156.21345,105 156.64605,105 157,103.90156 157,102.55902 c 0,-1.34254 0.45,-2.719101 1,-3.05902 0.55,-0.339919 1.00678,-2.053976 1.01506,-3.809017 0.021,-4.456129 2.39165,-10.796163 4.61691,-12.347499 3.12915,-2.181487 13.34963,-12.777038 13.35913,-13.849373 0.01,-1.081903 3.87462,-2.988063 8.14932,-4.019079 1.45223,-0.350264 3.89892,-1.950436 5.43709,-3.555937 C 192.11568,60.313593 193.75374,59 194.21764,59 c 0.46391,0 2.15755,-1.496661 3.76365,-3.325913 2.99727,-3.413701 5.39367,-4.634649 17.51871,-8.925655 C 227.48381,42.507404 232.67618,41 235.30088,41 c 1.39285,0 2.68245,-0.3375 2.86579,-0.75 0.50877,-1.14473 15.98535,-4.025189 28.67531,-5.336968 11.42944,-1.181477 14.30701,-0.881215 22.15802,2.312093 1.375,0.559265 5.2,1.660586 8.5,2.447379 18.24936,4.351054 22.00543,5.587187 27.65849,9.102502 2.01218,1.251253 7.41218,3.189424 12,4.307047 4.58783,1.117622 10.81651,3.238484 13.84151,4.713026 5.22354,2.546226 15,11.116345 15,13.149119 0,1.005607 10.34276,15.466815 16.48968,23.055802 7.3127,9.02826 9.14313,11.86589 10.41166,16.14071 0.71147,2.39761 1.69973,5.14068 2.19612,6.09572 0.4964,0.95504 0.91255,2.75504 0.92478,4 0.0122,1.24496 0.90222,3.38857 1.97776,4.76357 1.07554,1.375 1.98452,3.625 2.01995,5 0.0413,1.60266 1.84084,4.29469 5.01354,7.5 4.41352,4.45889 4.95007,5.47445 4.95782,9.38398 0.0112,5.64582 2.02954,13.26674 5.12536,19.35245 0.48583,0.95504 0.88333,2.67212 0.88333,3.81574 0,1.14362 0.48123,2.97849 1.06939,4.07749 0.67259,1.25675 0.72193,2.43828 0.13296,3.18426 -0.51505,0.65235 -1.18332,4.05063 -1.48506,7.55174 -0.30173,3.50111 -1.03656,6.85361 -1.63295,7.45 -0.59639,0.59639 -1.10394,2.90684 -1.12789,5.13434 -0.0652,6.06082 -4.17374,23.07564 -6.03674,25 -0.50584,0.5225 -0.92972,2.7725 -0.94195,5 -0.0136,2.47222 -0.78406,5.02394 -1.97776,6.55 -1.07554,1.375 -1.96553,2.98406 -1.97776,3.57569 -0.0122,0.59162 -1.14859,2.13383 -2.52524,3.42713 -1.37665,1.29329 -3.86219,5.14142 -5.52341,8.5514 -1.89969,3.89945 -5.00205,8.00806 -8.36101,11.07287 C 371.41678,273.57975 366,279.57149 366,282.32144 c 0,4.43301 -10.78122,15.53735 -18.07926,18.6211 -1.33141,0.56258 -4.22074,2.15283 -6.42074,3.53388 -2.2,1.38105 -5.0125,3.03607 -6.25,3.67781 -1.2375,0.64174 -2.25,1.54457 -2.25,2.00629 0,0.46171 -0.7875,0.85355 -1.75,0.87075 -0.9625,0.0172 -4,1.13809 -6.75,2.49086 -2.75,1.35277 -5.7875,2.4637 -6.75,2.46873 -0.9625,0.005 -1.75,0.41512 -1.75,0.91131 0,0.4962 -1.2375,1.41422 -2.75,2.04004 -1.5125,0.62582 -4.1,1.90734 -5.75,2.84782 -3.98629,2.27214 -34.59273,2.77822 -44.59981,0.73746 z M 203.59887,164.38606 C 205.46949,163.49839 207,162.46339 207,162.08606 207,160.74135 204.56892,159 202.69159,159 c -1.55369,0 -1.78765,-0.48113 -1.25873,-2.58852 0.62239,-2.4798 0.51144,-2.5598 -2.64159,-1.90486 C 193.83065,155.53704 185,160.05515 185,161.56278 c 0,3.84488 12.46012,5.73631 18.59887,2.82328 z m 42.76639,-6.59112 c 0.83981,-1.34099 0.55732,-2.24845 -1.32304,-4.25 C 243.72725,152.14522 241.77356,151 240.70069,151 c -1.62842,0 -1.85285,0.48921 -1.35844,2.96123 0.32573,1.62867 0.15698,3.23023 -0.375,3.55901 -0.53199,0.32879 -0.96725,1.0484 -0.96725,1.59914 0,1.66697 7.20639,0.52601 8.36526,-1.32444 z m -15.22564,-16.53456 c 1.99719,-1.99719 -1.90204,-3.47974 -7.36072,-2.79867 -2.9034,0.36225 -7.5289,0.79896 -10.2789,0.97045 -8.40025,0.52386 -8.22128,0.45837 -6,2.1958 1.62489,1.27095 3.94066,1.47182 12.34724,1.07096 5.69098,-0.27137 10.77256,-0.91872 11.29238,-1.43854 z M 182.8,118.8 c 0.66,-0.66 1.19998,-3.4725 1.19996,-6.25 -4e-5,-4.53536 0.3571,-5.35573 3.50452,-8.05 2.29169,-1.96175 3.71747,-4.2113 4.11975,-6.5 l 0.61518,-3.5 -2.3697,2.244121 c -1.30334,1.234266 -3.80217,3.386489 -5.55296,4.782729 -3.24604,2.58868 -5.9202,8.45821 -4.97535,10.92044 0.28805,0.75064 -0.34593,2.15182 -1.40884,3.11374 -2.39381,2.16637 -2.44214,3.15915 -0.18256,3.74964 3.04973,0.79698 3.82027,0.71906 5.05,-0.51067 z m 39.78943,-3.30041 c 2.72843,-2.08108 3.71948,-2.33264 5.90949,-1.5 3.30935,1.25821 15.18904,1.31432 15.95477,0.0754 0.31444,-0.50879 0.042,-2.08763 -0.60539,-3.50855 -0.92431,-2.02862 -0.89318,-3.11401 0.1449,-5.05369 1.18748,-2.21883 1.07701,-2.71179 -1.08559,-4.84414 -3.3971,-3.349578 -6.26126,-4.67068 -10.09187,-4.654905 -5.20786,0.0214 -7.81574,1.040038 -7.81574,3.052794 0,2.616281 -5.37098,10.223031 -9.76175,13.825251 -3.10282,2.54559 -3.48328,3.23779 -2.23825,4.07226 2.54173,1.70357 6.16051,1.15094 9.58943,-1.46442 z M 214,116.05089 c 0,-0.52201 1.50355,-2.09592 3.34123,-3.49759 1.83768,-1.40166 4.19001,-4.12457 5.22741,-6.05089 1.03739,-1.92633 2.23384,-3.50241 2.65876,-3.50241 0.42493,0 0.7726,-1.07686 0.7726,-2.39301 0,-5.364378 9.56211,-4.94381 15.75049,0.69275 2.11852,1.9296 2.15704,2.19244 0.6569,4.48194 -1.15287,1.75951 -1.29129,2.73442 -0.50049,3.52522 0.60121,0.60121 1.0931,1.9031 1.0931,2.8931 0,1.4996 -0.85681,1.8 -5.13398,1.8 -2.82369,0 -6.95439,-0.54541 -9.17933,-1.21202 -3.19284,-0.95659 -4.13196,-0.95216 -4.45636,0.021 C 223.31974,115.54077 214,118.49409 214,116.05089 Z m 41,-11.11663 C 255,101.80249 253.14944,99 251.08145,99 c -2.54948,0 -3.32875,3.71334 -1.25724,5.99088 2.33069,2.56249 5.17579,2.53136 5.17579,-0.0566 z m -3.96482,-0.86852 c -0.56935,-1.06384 -1.03518,-2.41384 -1.03518,-3 0,-1.188001 2.99207,-1.501481 3.01365,-0.31574 0.008,0.4125 0.285,1.7625 0.61664,3 0.74497,2.77988 -1.15277,3.01077 -2.59511,0.31574 z m -1.64042,-8.106696 c 1.15788,-1.122526 3.41485,-3.073821 5.01548,-4.336211 C 257.69575,89.031618 257.22637,87 253.34219,87 c -3.77518,0 -10.35356,7.55455 -8.78642,10.090242 0.89934,1.455151 2.57531,1.063363 4.83899,-1.131198 z M 245.6514,95.466058 C 246.86536,92.30253 251.51667,88 253.72268,88 c 3.25906,0 2.80955,1.674401 -0.97268,3.623234 -1.7875,0.921026 -3.83802,2.507582 -4.5567,3.52568 -1.57901,2.236826 -3.36401,2.459535 -2.5419,0.317144 z M 199,90.5 c 0,-0.825 -0.85186,-1.5 -1.89301,-1.5 -1.04116,0 -2.15203,0.675 -2.46862,1.5 -0.41585,1.083694 0.10953,1.5 1.89301,1.5 C 198.05904,92 199,91.428248 199,90.5 Z M 211.96482,76.065741 C 214.22333,71.845679 212.41457,70.585427 209,74 c -1.1,1.1 -2,2.45 -2,3 0,1.788114 3.90068,1.0541 4.96482,-0.934259 z"
       id="path3861"
       inkscape:connector-curvature="0" />
    <path
       style="fill:#fefe00"
       d="M 245,333.56257 C 211.80484,327.64637 186.09285,314.16953 161.96166,290.03834 143.50864,271.58532 132.10303,253.50252 124.49924,230.64427 118.32893,212.09531 117.5,206.09743 117.5,180 c 0,-26.09743 0.82893,-32.09531 6.99924,-50.64427 7.60379,-22.85825 19.0094,-40.941046 37.46242,-59.39407 C 180.41468,51.508637 198.49748,40.103033 221.35573,32.49924 239.90469,26.328931 245.90257,25.5 272,25.5 c 26.09743,0 32.09531,0.828931 50.64427,6.99924 22.85825,7.603793 40.94105,19.009397 59.39407,37.46242 18.45302,18.453024 29.85863,36.53582 37.46242,59.39407 C 425.67107,147.90469 426.5,153.90257 426.5,180 c 0,18.89574 -0.35509,25.16537 -1.81237,32 -4.25937,19.97634 -12.61138,39.6171 -24.026,56.5 -7.99764,11.82898 -28.33265,32.16399 -40.16163,40.16163 -16.45188,11.1232 -35.90086,19.49175 -55.5,23.88067 -10.16742,2.27683 -49.22323,2.94095 -60,1.02027 z m 58,-4.0296 c 30.21123,-6.72776 54.71082,-20.17102 76.53638,-41.99659 17.92448,-17.92447 29.43898,-36.26953 36.96438,-58.89211 C 422.5614,210.42498 423.5,203.9018 423.5,180 c 0,-23.9018 -0.9386,-30.42498 -6.99924,-48.64427 -7.5254,-22.62258 -19.0399,-40.967635 -36.96438,-58.892112 C 357.40594,50.333174 332.56685,36.829854 302,30.312375 c -12.17761,-2.596517 -47.82239,-2.596517 -60,0 -30.56685,6.517479 -55.40594,20.020799 -77.53638,42.151243 C 142.33317,94.594062 128.82985,119.43315 122.31237,150 c -2.59651,12.17761 -2.59651,47.82239 0,60 6.51748,30.56685 20.0208,55.40594 42.15125,77.53638 23.59706,23.59706 49.57972,37.14272 82.53638,43.02907 10.555,1.88521 45.81747,1.23507 56,-1.03248 z m -40.09981,-7.00548 c -3.6299,-0.74025 -11.2799,-1.67271 -17,-2.07214 -5.7201,-0.39944 -10.62519,-1.00279 -10.90019,-1.3408 -0.52727,-0.64807 -4.83619,-2.79426 -11.5,-5.72794 -2.2,-0.96853 -6.61932,-3.47673 -9.82071,-5.57379 C 210.47789,305.71577 207.22761,304 206.45644,304 204.42874,304 187,294.87106 187,293.80897 c 0,-1.5826 -8.09518,-11.90954 -9.82638,-12.53541 -5.40651,-1.95459 -22.12181,-17.80988 -25.13758,-23.84426 -0.80518,-1.61112 -2.26768,-4.12377 -3.25,-5.58367 C 147.61645,250.10742 147,247.31696 147,243.76087 l 0,-5.43038 -4.93438,-2.41525 -4.93438,-2.41524 -0.31562,-10 -0.31562,-10 -4.25,-1.92119 -4.25,-1.92118 0.0596,-11.57882 c 0.0328,-6.36834 0.48077,-13.82881 0.99552,-16.57881 0.51475,-2.75 1.35228,-7.475 1.86118,-10.5 0.5089,-3.025 1.63591,-7.46908 2.50448,-9.87573 C 134.28935,158.71762 135,155.68012 135,154.37427 135,153.06842 135.37797,152 135.83994,152 137.14171,152 141,137.98477 141,133.2561 141,129.00361 143.71369,123 145.63586,123 c 1.31687,0 1.38299,-0.27237 0.36414,-1.5 -0.71546,-0.86207 -0.81363,-1.5 -0.23085,-1.5 0.55772,0 1.30515,-1.15991 1.66096,-2.57757 C 148.13316,114.62127 154.93593,105 156.21345,105 156.64605,105 157,103.90156 157,102.55902 c 0,-1.34254 0.45,-2.719101 1,-3.05902 0.55,-0.339919 1.00678,-2.053976 1.01506,-3.809017 0.021,-4.456129 2.39165,-10.796163 4.61691,-12.347499 3.12915,-2.181487 13.34963,-12.777038 13.35913,-13.849373 0.01,-1.081903 3.87462,-2.988063 8.14932,-4.019079 1.45223,-0.350264 3.89892,-1.950436 5.43709,-3.555937 C 192.11568,60.313593 193.75374,59 194.21764,59 c 0.46391,0 2.15755,-1.496661 3.76365,-3.325913 2.99727,-3.413701 5.39367,-4.634649 17.51871,-8.925655 C 227.48381,42.507404 232.67618,41 235.30088,41 c 1.39285,0 2.68245,-0.3375 2.86579,-0.75 0.50877,-1.14473 15.98535,-4.025189 28.67531,-5.336968 11.42944,-1.181477 14.30701,-0.881215 22.15802,2.312093 1.375,0.559265 5.2,1.660586 8.5,2.447379 18.24936,4.351054 22.00543,5.587187 27.65849,9.102502 2.01218,1.251253 7.41218,3.189424 12,4.307047 4.58783,1.117622 10.81651,3.238484 13.84151,4.713026 5.22354,2.546226 15,11.116345 15,13.149119 0,1.005607 10.34276,15.466815 16.48968,23.055802 7.3127,9.02826 9.14313,11.86589 10.41166,16.14071 0.71147,2.39761 1.69973,5.14068 2.19612,6.09572 0.4964,0.95504 0.91255,2.75504 0.92478,4 0.0122,1.24496 0.90222,3.38857 1.97776,4.76357 1.07554,1.375 1.98452,3.625 2.01995,5 0.0413,1.60266 1.84084,4.29469 5.01354,7.5 4.41352,4.45889 4.95007,5.47445 4.95782,9.38398 0.0112,5.64582 2.02954,13.26674 5.12536,19.35245 0.48583,0.95504 0.88333,2.67212 0.88333,3.81574 0,1.14362 0.48123,2.97849 1.06939,4.07749 0.67259,1.25675 0.72193,2.43828 0.13296,3.18426 -0.51505,0.65235 -1.18332,4.05063 -1.48506,7.55174 -0.30173,3.50111 -1.03656,6.85361 -1.63295,7.45 -0.59639,0.59639 -1.10394,2.90684 -1.12789,5.13434 -0.0652,6.06082 -4.17374,23.07564 -6.03674,25 -0.50584,0.5225 -0.92972,2.7725 -0.94195,5 -0.0136,2.47222 -0.78406,5.02394 -1.97776,6.55 -1.07554,1.375 -1.96553,2.98406 -1.97776,3.57569 -0.0122,0.59162 -1.14859,2.13383 -2.52524,3.42713 -1.37665,1.29329 -3.86219,5.14142 -5.52341,8.5514 -1.89969,3.89945 -5.00205,8.00806 -8.36101,11.07287 C 371.41678,273.57975 366,279.57149 366,282.32144 c 0,4.43301 -10.78122,15.53735 -18.07926,18.6211 -1.33141,0.56258 -4.22074,2.15283 -6.42074,3.53388 -2.2,1.38105 -5.0125,3.03607 -6.25,3.67781 -1.2375,0.64174 -2.25,1.54457 -2.25,2.00629 0,0.46171 -0.7875,0.85355 -1.75,0.87075 -0.9625,0.0172 -4,1.13809 -6.75,2.49086 -2.75,1.35277 -5.7875,2.4637 -6.75,2.46873 -0.9625,0.005 -1.75,0.41512 -1.75,0.91131 0,0.4962 -1.2375,1.41422 -2.75,2.04004 -1.5125,0.62582 -4.1,1.90734 -5.75,2.84782 -3.98629,2.27214 -34.59273,2.77822 -44.59981,0.73746 z M 203.59887,164.38606 C 205.46949,163.49839 207,162.46339 207,162.08606 207,160.74135 204.56892,159 202.69159,159 c -1.55369,0 -1.78765,-0.48113 -1.25873,-2.58852 0.62239,-2.4798 0.51144,-2.5598 -2.64159,-1.90486 C 193.83065,155.53704 185,160.05515 185,161.56278 c 0,3.84488 12.46012,5.73631 18.59887,2.82328 z m 42.76639,-6.59112 c 0.83981,-1.34099 0.55732,-2.24845 -1.32304,-4.25 C 243.72725,152.14522 241.77356,151 240.70069,151 c -1.62842,0 -1.85285,0.48921 -1.35844,2.96123 0.32573,1.62867 0.15698,3.23023 -0.375,3.55901 -0.53199,0.32879 -0.96725,1.0484 -0.96725,1.59914 0,1.66697 7.20639,0.52601 8.36526,-1.32444 z m -15.22564,-16.53456 c 1.99719,-1.99719 -1.90204,-3.47974 -7.36072,-2.79867 -2.9034,0.36225 -7.5289,0.79896 -10.2789,0.97045 -8.40025,0.52386 -8.22128,0.45837 -6,2.1958 1.62489,1.27095 3.94066,1.47182 12.34724,1.07096 5.69098,-0.27137 10.77256,-0.91872 11.29238,-1.43854 z M 182.8,118.8 c 0.66,-0.66 1.19998,-3.4725 1.19996,-6.25 -4e-5,-4.53536 0.3571,-5.35573 3.50452,-8.05 2.29169,-1.96175 3.71747,-4.2113 4.11975,-6.5 l 0.61518,-3.5 -2.3697,2.244121 c -1.30334,1.234266 -3.80217,3.386489 -5.55296,4.782729 -3.24604,2.58868 -5.9202,8.45821 -4.97535,10.92044 0.28805,0.75064 -0.34593,2.15182 -1.40884,3.11374 -2.39381,2.16637 -2.44214,3.15915 -0.18256,3.74964 3.04973,0.79698 3.82027,0.71906 5.05,-0.51067 z m 39.78943,-3.30041 c 2.72843,-2.08108 3.71948,-2.33264 5.90949,-1.5 3.30935,1.25821 15.18904,1.31432 15.95477,0.0754 0.31444,-0.50879 0.042,-2.08763 -0.60539,-3.50855 -0.92431,-2.02862 -0.89318,-3.11401 0.1449,-5.05369 1.18748,-2.21883 1.07701,-2.71179 -1.08559,-4.84414 -3.3971,-3.349578 -6.26126,-4.67068 -10.09187,-4.654905 -5.20786,0.0214 -7.81574,1.040038 -7.81574,3.052794 0,2.616281 -5.37098,10.223031 -9.76175,13.825251 -3.10282,2.54559 -3.48328,3.23779 -2.23825,4.07226 2.54173,1.70357 6.16051,1.15094 9.58943,-1.46442 z M 255,104.93426 C 255,101.80249 253.14944,99 251.08145,99 c -2.54948,0 -3.32875,3.71334 -1.25724,5.99088 2.33069,2.56249 5.17579,2.53136 5.17579,-0.0566 z m -5.60524,-8.975216 c 1.15788,-1.122526 3.41485,-3.073821 5.01548,-4.336211 C 257.69575,89.031618 257.22637,87 253.34219,87 c -3.77518,0 -10.35356,7.55455 -8.78642,10.090242 0.89934,1.455151 2.57531,1.063363 4.83899,-1.131198 z M 199,90.5 c 0,-0.825 -0.85186,-1.5 -1.89301,-1.5 -1.04116,0 -2.15203,0.675 -2.46862,1.5 -0.41585,1.083694 0.10953,1.5 1.89301,1.5 C 198.05904,92 199,91.428248 199,90.5 Z M 211.96482,76.065741 C 214.22333,71.845679 212.41457,70.585427 209,74 c -1.1,1.1 -2,2.45 -2,3 0,1.788114 3.90068,1.0541 4.96482,-0.934259 z"
       id="path3859"
       inkscape:connector-curvature="0" />
    <path
       style="fill:#fe8a00"
       d="M 245,333.56257 C 211.80484,327.64637 186.09285,314.16953 161.96166,290.03834 143.50864,271.58532 132.10303,253.50252 124.49924,230.64427 118.32893,212.09531 117.5,206.09743 117.5,180 c 0,-26.09743 0.82893,-32.09531 6.99924,-50.64427 7.60379,-22.85825 19.0094,-40.941046 37.46242,-59.39407 C 180.41468,51.508637 198.49748,40.103033 221.35573,32.49924 239.90469,26.328931 245.90257,25.5 272,25.5 c 26.09743,0 32.09531,0.828931 50.64427,6.99924 22.85825,7.603793 40.94105,19.009397 59.39407,37.46242 18.45302,18.453024 29.85863,36.53582 37.46242,59.39407 C 425.67107,147.90469 426.5,153.90257 426.5,180 c 0,18.89574 -0.35509,25.16537 -1.81237,32 -4.25937,19.97634 -12.61138,39.6171 -24.026,56.5 -7.99764,11.82898 -28.33265,32.16399 -40.16163,40.16163 -16.45188,11.1232 -35.90086,19.49175 -55.5,23.88067 -10.16742,2.27683 -49.22323,2.94095 -60,1.02027 z m 58,-4.0296 c 30.21123,-6.72776 54.71082,-20.17102 76.53638,-41.99659 17.92448,-17.92447 29.43898,-36.26953 36.96438,-58.89211 C 422.5614,210.42498 423.5,203.9018 423.5,180 c 0,-23.9018 -0.9386,-30.42498 -6.99924,-48.64427 -7.5254,-22.62258 -19.0399,-40.967635 -36.96438,-58.892112 C 357.40594,50.333174 332.56685,36.829854 302,30.312375 c -12.17761,-2.596517 -47.82239,-2.596517 -60,0 -30.56685,6.517479 -55.40594,20.020799 -77.53638,42.151243 C 142.33317,94.594062 128.82985,119.43315 122.31237,150 c -2.59651,12.17761 -2.59651,47.82239 0,60 6.51748,30.56685 20.0208,55.40594 42.15125,77.53638 23.59706,23.59706 49.57972,37.14272 82.53638,43.02907 10.555,1.88521 45.81747,1.23507 56,-1.03248 z M 245.16576,310.9594 c -5.10012,-0.53479 -7.99396,-1.36948 -9.5,-2.74018 -1.19117,-1.08412 -4.64076,-2.5388 -7.66576,-3.23263 -3.025,-0.69382 -7.65416,-2.09964 -10.28702,-3.12404 C 215.08012,300.83815 211.8677,300 210.57427,300 c -1.87539,0 -2.47885,-0.67782 -2.97953,-3.34667 -0.53268,-2.83944 -1.23158,-3.52756 -4.61129,-4.54014 -3.72486,-1.116 -3.98345,-1.43707 -3.98345,-4.94593 0,-3.56955 -0.20715,-3.80789 -4.25,-4.88995 -5.89365,-1.57742 -10.72941,-5.10552 -12.98212,-9.47156 -1.28371,-2.48799 -3.35841,-4.3973 -6.35393,-5.84741 -2.44632,-1.18424 -4.95208,-3.09532 -5.56836,-4.24685 -0.61628,-1.15153 -2.67833,-3.6952 -4.58233,-5.65259 -3.31678,-3.40979 -3.44327,-3.81028 -3.01898,-9.5589 0.47549,-6.44235 -1.85317,-14.02895 -4.63358,-15.09589 -2.48146,-0.95223 -6.39553,-7.71036 -7.13427,-12.31819 -2.1786,-13.58897 1.66099,-21.74153 12.24912,-26.00844 2.55732,-1.03058 3.36188,-2.0537 3.88364,-4.93867 0.36196,-2.00135 1.28452,-4.87631 2.05014,-6.38881 l 1.39203,-2.75 12.58124,0 c 14.62259,0 24.06848,-1.73429 42.3674,-7.77879 9.9683,-3.29272 13.67048,-5.26179 18.75,-9.97254 5.13968,-4.76654 5.35561,-7.11374 1.25,-13.58762 -3.53431,-5.57302 -3.67494,-6.75845 -1,-8.42898 2.77917,-1.73562 2.49644,-3.55058 -0.75,-4.81446 -11.13628,-4.3355 -15.39532,-5.36411 -22.33322,-5.39375 -5.94184,-0.0254 -16.4016,1.58814 -18.95524,2.92404 -0.84615,0.44265 -3.53632,1.14236 -5.97816,1.55491 -6.15359,1.03964 -8.98338,3.09957 -8.98338,6.5394 0,3.45707 -5.36311,8.2059 -11.98758,10.61455 -4.78864,1.74114 -9.94075,6.68637 -9.98552,9.58454 -0.0148,0.95772 -1.44364,3.09522 -3.17521,4.75 -4.2982,4.10759 -9.42093,4.14765 -13.74593,0.10749 -3.66852,-3.42691 -3.76094,-4.36342 -1.03801,-10.51905 1.13726,-2.57097 2.45043,-6.79067 2.91814,-9.37712 1.04442,-5.77563 3.77126,-15.99997 4.988,-18.70262 0.49523,-1.1 1.20592,-3.125 1.57933,-4.5 0.3734,-1.375 1.7089,-3.87638 2.96776,-5.55862 2.624,-3.50647 5.6217,-9.98275 7.5429,-16.29578 0.72883,-2.394916 2.30914,-4.999132 3.5118,-5.787144 1.20266,-0.788013 4.01453,-4.003534 6.24861,-7.145603 5.74573,-8.080953 9.32616,-11.884472 11.92571,-12.668782 1.2375,-0.373365 2.25,-1.084694 2.25,-1.58073 0,-1.517641 10.82788,-7.932073 20.39227,-12.080379 4.98357,-2.161489 10.42153,-5.201395 12.08438,-6.755346 C 228.47367,50.457823 231.25409,49 235.16349,49 c 6.74411,0 6.14766,1.829489 -3.01247,9.240213 C 230.96796,59.197329 230,61.021554 230,62.294046 230,63.625358 228.51398,66.04797 226.5,68 c -5.05297,4.897528 -4.80689,8.188932 0.81572,10.910794 4.64424,2.248235 12.52646,2.779221 15.73844,1.060219 1.05748,-0.565942 4.21101,-4.053442 7.00787,-7.75 2.79685,-3.696557 6.06456,-7.267567 7.26158,-7.935578 3.04692,-1.700373 10.21596,-1.574894 13.72605,0.240245 2.95889,1.530099 3.14125,1.881269 3.34191,6.435199 0.14958,3.394728 3.79333,5.006535 11.35843,5.024379 4.99145,0.01177 6.66512,-0.400374 8.31148,-2.046742 3.58704,-3.587037 2.44798,-5.012157 -8.84459,-11.065803 -1.45747,-0.78131 -2.18073,-1.97408 -2,-3.298314 0.21734,-1.592488 -0.7623,-2.572484 -4.21689,-4.21842 -8.06064,-3.840488 -8.99327,-6.170054 -3.75,-9.366939 5.01296,-3.056463 12.46659,-2.609589 25.17446,1.509304 5.93631,1.924089 15.13181,4.676967 20.43442,6.117505 10.54672,2.865183 17.16238,5.949633 20.15036,9.394801 2.0753,2.392843 2.17823,2.671363 4.06115,10.98935 1.52513,6.737376 3.3871,11.335912 5.12183,12.649479 1.17038,0.886222 4.02605,1.844686 11.76114,3.947446 3.30082,0.897317 4.50785,2.2541 6.15479,6.918348 1.31944,3.736757 2.37975,5.267807 6.93919,10.019897 1.5108,1.57464 1.95266,3.44709 1.95266,8.27475 0,5.58371 0.24083,6.33114 2.2911,7.11066 1.2601,0.47909 2.91178,1.61895 3.67039,2.53302 0.75861,0.91407 2.76512,2.28067 4.4589,3.03688 6.34353,2.83217 6.35104,2.89092 1.1474,8.98185 -2.64262,3.09322 -4.63894,5.77012 -4.43628,5.94867 0.20267,0.17856 1.79352,1.04905 3.53522,1.93444 2.22671,1.13194 3.37115,2.57969 3.8554,4.87718 0.37878,1.79706 1.69226,4.39238 2.91886,5.76738 2.31634,2.5966 6.15142,11.66602 5.75788,13.6166 -0.1239,0.61413 0.45567,1.68173 1.28793,2.37244 2.23997,1.85902 1.94504,9.57616 -0.51831,13.56195 -1.97414,3.19422 -1.9844,3.47464 -0.36329,9.92832 1.94426,7.74012 1.16609,10.26285 -4.18601,13.57063 C 393.28981,210.98401 390,216.2587 390,219.34211 c 0,0.84692 -0.45,1.81797 -1,2.15789 -1.70605,1.05439 -1.10053,5.4335 1,7.23203 2.5639,2.19527 2.56358,4.95432 -6.7e-4,5.76818 -2.7531,0.8738 -6.62728,6.27971 -7.52395,10.49869 -0.40899,1.92439 -1.89342,4.48689 -3.29873,5.69443 -3.66592,3.15003 -11.42583,6.75029 -16.82296,7.80511 -4.5866,0.89642 -6.52501,3.63619 -7.23277,10.22293 -0.53095,4.94128 -0.93639,5.82355 -2.79799,6.08862 -2.19646,0.31276 -7.32293,6.06647 -7.32293,8.21892 0,1.44526 -3.7451,6.8789 -6.35557,9.22109 -1.07275,0.9625 -3.44274,1.75 -5.26665,1.75 -4.93195,0 -11.02291,3.5247 -11.73364,6.78998 -1.10741,5.08772 -1.94932,5.53385 -11.31126,5.9939 -4.85808,0.23872 -9.26038,0.83501 -9.78288,1.32508 -0.5225,0.49007 -4.81546,0.89104 -9.5399,0.89104 -4.72445,0 -11.1814,0.675 -14.34879,1.5 -6.10456,1.59004 -18.9289,1.77709 -31.49555,0.4594 z M 173.45953,139.26022 C 174.85679,137.75334 176,135.7549 176,134.81924 c 0,-0.93567 0.45,-1.97932 1,-2.31924 0.55,-0.33992 1,-1.64673 1,-2.90403 0,-3.08635 2.67762,-5.27949 7.5,-6.14298 6.82792,-1.22261 7.5,-1.92085 7.5,-7.79201 0,-4.70849 0.37212,-5.62932 3.5,-8.66098 2.1625,-2.09598 3.51208,-4.36826 3.5316,-5.94617 0.029,-2.341293 3.35472,-7.233205 5.55066,-8.164583 0.50476,-0.214086 2.5853,-1.514247 4.62343,-2.889247 3.08962,-2.084376 3.70648,-3.081873 3.71043,-6 0.003,-1.925 0.29131,-5.617944 0.64155,-8.206543 0.61213,-4.524191 0.52918,-4.733556 -2.14114,-5.403762 -4.12074,-1.03424 -7.38091,1.325146 -10.61929,7.685188 -2.00085,3.929601 -3.83051,6.047425 -6.20127,7.177959 -4.3657,2.08186 -9.99761,7.057993 -14.66431,12.956817 -2.96369,3.746181 -3.86413,5.900461 -4.4015,10.530481 -0.6109,5.26355 -1.02557,6.05726 -4.33125,8.29035 -8.63237,5.83142 -11.15439,10.23157 -11.1879,19.51951 -0.0145,4.02899 1.5886,5.45 6.14852,5.45 2.81307,0 4.39909,-0.68974 6.3,-2.73978 z M 231.5,123.39153 l 16,-0.62871 4,-3.25862 c 4.62519,-3.76793 6.5,-8.6722 6.5,-17.00315 0,-5.162259 0.21637,-5.663693 3.25,-7.531894 1.7875,-1.100796 4.95885,-2.765202 7.04744,-3.698681 3.30595,-1.477566 3.75895,-2.080686 3.5,-4.659899 -0.37422,-3.727462 -4.68404,-6.435682 -10.40364,-6.537488 -3.25276,-0.0579 -5.10304,0.688056 -8.90235,3.589045 -6.47693,4.945504 -17.8725,6.943891 -23.91007,4.192994 -2.18016,-0.993351 -2.99453,-0.77738 -6.15316,1.631821 -4.31224,3.289111 -6.74908,8.379927 -6.85293,14.316552 -0.0692,3.95835 -0.39609,4.47966 -4.07529,6.5 -2.2,1.20807 -4.225,2.42222 -4.5,2.69809 -0.275,0.27588 -1.7375,1.13942 -3.25,1.91898 -2.01764,1.03992 -2.75,2.17056 -2.75,4.24554 0,3.61025 4.65961,5.96472 10.5,5.30557 2.2,-0.24829 11.2,-0.73436 20,-1.08015 z"
       id="path3857"
       inkscape:connector-curvature="0" />
    <path
       style="fill:#fe5100"
       d="M 245,333.56257 C 211.80484,327.64637 186.09285,314.16953 161.96166,290.03834 143.50864,271.58532 132.10303,253.50252 124.49924,230.64427 118.32893,212.09531 117.5,206.09743 117.5,180 c 0,-26.09743 0.82893,-32.09531 6.99924,-50.64427 7.60379,-22.85825 19.0094,-40.941046 37.46242,-59.39407 C 180.41468,51.508637 198.49748,40.103033 221.35573,32.49924 239.90469,26.328931 245.90257,25.5 272,25.5 c 26.09743,0 32.09531,0.828931 50.64427,6.99924 22.85825,7.603793 40.94105,19.009397 59.39407,37.46242 18.45302,18.453024 29.85863,36.53582 37.46242,59.39407 C 425.67107,147.90469 426.5,153.90257 426.5,180 c 0,18.89574 -0.35509,25.16537 -1.81237,32 -4.25937,19.97634 -12.61138,39.6171 -24.026,56.5 -7.99764,11.82898 -28.33265,32.16399 -40.16163,40.16163 -16.45188,11.1232 -35.90086,19.49175 -55.5,23.88067 -10.16742,2.27683 -49.22323,2.94095 -60,1.02027 z m 58,-4.0296 c 30.21123,-6.72776 54.71082,-20.17102 76.53638,-41.99659 17.92448,-17.92447 29.43898,-36.26953 36.96438,-58.89211 C 422.5614,210.42498 423.5,203.9018 423.5,180 c 0,-23.9018 -0.9386,-30.42498 -6.99924,-48.64427 -7.5254,-22.62258 -19.0399,-40.967635 -36.96438,-58.892112 C 357.40594,50.333174 332.56685,36.829854 302,30.312375 c -12.17761,-2.596517 -47.82239,-2.596517 -60,0 -30.56685,6.517479 -55.40594,20.020799 -77.53638,42.151243 C 142.33317,94.594062 128.82985,119.43315 122.31237,150 c -2.59651,12.17761 -2.59651,47.82239 0,60 6.51748,30.56685 20.0208,55.40594 42.15125,77.53638 23.59706,23.59706 49.57972,37.14272 82.53638,43.02907 10.555,1.88521 45.81747,1.23507 56,-1.03248 z M 256.59514,295.5 c -2.02618,-1.375 -4.06897,-2.5 -4.53955,-2.5 -0.47057,0 -2.36676,-1.51117 -4.21375,-3.35816 -3.28829,-3.28829 -3.57648,-3.36944 -13.85,-3.89991 C 224.78073,285.26631 222.70655,284.8055 217,281.967 c -8.03671,-3.99755 -7.64495,-3.59685 -5.66054,-5.78961 0.9133,-1.00918 1.65243,-2.24944 1.64251,-2.75613 -0.0228,-1.16797 -5.87465,-6.00735 -12.98197,-10.73595 -3.025,-2.01258 -7.525,-5.49159 -10,-7.73113 -2.475,-2.23954 -6.4125,-5.67277 -8.75,-7.6294 -4.16277,-3.48449 -4.25,-3.6851 -4.25,-9.77448 0,-3.41933 -0.3084,-6.52537 -0.68534,-6.9023 -1.47279,-1.4728 -2.87643,-7.27284 -2.32491,-9.6069 0.47608,-2.01482 1.56794,-2.69016 6.04563,-3.7394 3.00554,-0.70428 8.05212,-1.54266 11.21462,-1.86306 l 5.75,-0.58255 0,-4.2874 0,-4.2874 5.17196,-0.89065 c 2.84457,-0.48985 5.32703,-1.36301 5.51657,-1.94036 0.18954,-0.57734 -1.21401,-2.80167 -3.11901,-4.94294 -3.41591,-3.83959 -3.43539,-3.91298 -1.41422,-5.32867 4.75885,-3.33323 18.39999,-4.65237 28.3798,-2.74442 l 4.03509,0.77144 2.72019,-4.99788 c 1.49611,-2.74884 3.42962,-5.27012 4.29669,-5.60285 0.86708,-0.33273 4.6897,-0.60496 8.49472,-0.60496 l 6.91821,0 0,3.8 c 0,2.09 -0.48518,4.28518 -1.07818,4.87818 -0.593,0.593 -0.9305,2.3705 -0.75,3.95 0.32575,2.85055 0.38418,2.87396 7.88905,3.16048 l 7.56086,0.28866 4.41997,-5.28866 c 2.43098,-2.90876 4.76609,-5.43866 5.18913,-5.62199 0.42304,-0.18334 0.77194,-1.98334 0.77533,-4 0.003,-2.01667 0.67839,-4.95561 1.5,-6.53098 C 284.32777,173.06032 285,170.48601 285,168.915 c 0,-2.49253 -0.70438,-3.17857 -5.52964,-5.38569 C 276.42907,162.13819 273.65725,161 273.31078,161 c -0.34648,0 -3.22473,-2.475 -6.39613,-5.5 -3.1714,-3.025 -6.21288,-5.5 -6.75885,-5.5 -1.53224,0 -5.1558,-6.4434 -5.1558,-9.16803 0,-2.76389 1.66734,-4.81694 3.95,-4.86377 0.8525,-0.0175 2.35526,-0.64259 3.33947,-1.38911 1.61103,-1.22195 1.63596,-1.51081 0.25,-2.89676 C 261.69276,130.83562 261,128.74958 261,127.04668 261,123.01455 263.61944,122 274.02992,122 c 6.78676,0 8.04555,-0.27251 8.9349,-1.93426 1.47303,-2.75239 1.27041,-7.09106 -0.48871,-10.46421 -1.35212,-2.59274 -1.34904,-3.14652 0.0292,-5.25 0.84743,-1.29334 2.2054,-2.35153 3.01772,-2.35153 1.75118,0 1.94584,-2.131109 0.34124,-3.735714 -1.29037,-1.290361 0.99607,-4.247513 3.31428,-4.286522 C 289.90536,93.965534 291.625,93.075541 293,92 c 2.495,-1.951619 11,-2.870593 11,-1.188561 0,1.97861 4.29419,5.188561 6.94113,5.188561 2.28229,0 3.07541,-0.608684 3.90903,-3 0.75658,-2.170342 1.68243,-2.995765 3.34782,-2.984687 3.70255,0.02463 4.67539,1.222973 6.10577,7.52108 1.18743,5.228417 1.78301,6.175037 4.92662,7.830487 l 3.5759,1.8831 -1.90313,5.53156 c -1.04673,3.04236 -1.90551,6.92361 -1.9084,8.62501 -0.008,4.55956 -2.85862,8.39459 -8.48539,11.41474 -5.79604,3.111 -6.21181,4.23686 -6.39104,17.30627 -0.15573,11.35615 -0.13113,11.37505 14.7878,11.36334 l 11.59389,-0.009 5.45383,-3.7255 c 2.9996,-2.04903 5.9246,-3.89864 6.5,-4.11024 0.69305,-0.25488 0.61972,-1.10658 -0.21725,-2.52332 -0.69489,-1.17622 -1.5411,-5.62252 -1.88047,-9.88066 C 349.7076,133.10509 347.55365,129 343.93267,129 c -3.57593,0 -4.03146,-7.6387 -0.68267,-11.44765 2.85659,-3.24911 11.81498,-5.18229 15.99377,-3.45138 1.51593,0.62792 2.75623,1.50504 2.75623,1.94915 0,0.44411 1.62539,2.52702 3.61199,4.62868 5.6886,6.01809 6.38801,7.43285 6.38801,12.92158 0,5.04768 2.02607,11.67967 3.92707,12.85455 0.52656,0.32543 1.25812,2.59722 1.6257,5.04842 0.53321,3.55567 0.24162,5.17996 -1.44222,8.03385 -3.02664,5.12978 -2.70039,6.96172 1.63945,9.20585 3.2417,1.67627 3.7908,2.46896 4.05102,5.84803 0.16837,2.18648 1.03993,4.47158 1.97791,5.18582 1.38082,1.05144 1.45654,1.58114 0.42888,3 -2.45308,3.38689 -4.48711,8.79565 -4.97271,13.2231 -0.31911,2.90949 -1.6635,6.14985 -3.80367,9.16789 -1.82057,2.56734 -3.79964,6.48584 -4.39795,8.70778 -0.59831,2.22194 -1.49246,4.28996 -1.98701,4.59561 -0.49455,0.30565 -0.66469,2.91215 -0.3781,5.79222 0.34916,3.50876 0.0493,6.13048 -0.90895,7.946 -1.84828,3.50196 -8.35781,10.52296 -13.06483,14.09139 -2.25136,1.70677 -3.70701,3.65994 -3.72639,5 -0.0575,3.97212 -5.07545,7.69911 -10.36603,7.69911 -1.26705,0 -3.61992,0.45883 -5.22862,1.01962 -2.61658,0.91215 -3.05463,1.70357 -4.15577,7.50827 -2.48486,13.09898 -6.49091,17.71346 -17.71778,20.40868 -2.75,0.66019 -6.125,2.22278 -7.5,3.47241 -1.375,1.24964 -3.85,2.7583 -5.5,3.35258 C 296.01956,296.37528 280.62841,298 269.82182,298 c -8.52985,0 -9.93374,-0.26535 -13.22668,-2.5 z"
       id="path3855"
       inkscape:connector-curvature="0" />
    <path
       style="fill:#a23800"
       d="M 245,333.56257 C 211.80484,327.64637 186.09285,314.16953 161.96166,290.03834 143.50864,271.58532 132.10303,253.50252 124.49924,230.64427 118.32893,212.09531 117.5,206.09743 117.5,180 c 0,-26.09743 0.82893,-32.09531 6.99924,-50.64427 7.60379,-22.85825 19.0094,-40.941046 37.46242,-59.39407 C 180.41468,51.508637 198.49748,40.103033 221.35573,32.49924 239.90469,26.328931 245.90257,25.5 272,25.5 c 26.09743,0 32.09531,0.828931 50.64427,6.99924 22.85825,7.603793 40.94105,19.009397 59.39407,37.46242 18.45302,18.453024 29.85863,36.53582 37.46242,59.39407 C 425.67107,147.90469 426.5,153.90257 426.5,180 c 0,18.89574 -0.35509,25.16537 -1.81237,32 -4.25937,19.97634 -12.61138,39.6171 -24.026,56.5 -7.99764,11.82898 -28.33265,32.16399 -40.16163,40.16163 -16.45188,11.1232 -35.90086,19.49175 -55.5,23.88067 -10.16742,2.27683 -49.22323,2.94095 -60,1.02027 z m 58,-4.0296 c 30.21123,-6.72776 54.71082,-20.17102 76.53638,-41.99659 17.92448,-17.92447 29.43898,-36.26953 36.96438,-58.89211 C 422.5614,210.42498 423.5,203.9018 423.5,180 c 0,-23.9018 -0.9386,-30.42498 -6.99924,-48.64427 -7.5254,-22.62258 -19.0399,-40.967635 -36.96438,-58.892112 C 357.40594,50.333174 332.56685,36.829854 302,30.312375 c -12.17761,-2.596517 -47.82239,-2.596517 -60,0 -30.56685,6.517479 -55.40594,20.020799 -77.53638,42.151243 C 142.33317,94.594062 128.82985,119.43315 122.31237,150 c -2.59651,12.17761 -2.59651,47.82239 0,60 6.51748,30.56685 20.0208,55.40594 42.15125,77.53638 23.59706,23.59706 49.57972,37.14272 82.53638,43.02907 10.555,1.88521 45.81747,1.23507 56,-1.03248 z M 257.27308,283.8872 c -1.7748,-0.51283 -3.75794,-1.93475 -4.40697,-3.15981 -1.50625,-2.84307 -4.71137,-5.68594 -7.72075,-6.84812 -1.92762,-0.74443 -2.23531,-1.38476 -1.69664,-3.53098 0.36189,-1.4419 1.75898,-4.06511 3.10463,-5.82935 C 247.89901,262.75469 249,260.79119 249,260.15561 249,259.50396 250.51,259 252.46249,259 255.66809,259 267,255.42192 267,254.40975 c 0,-0.24561 -1.17216,-2.68828 -2.6048,-5.42816 -2.44556,-4.67703 -2.84295,-4.98159 -6.5,-4.98159 -4.5576,0 -4.76705,-0.80025 -1.93727,-7.40185 1.94886,-4.54651 3.10296,-5.00248 6.54207,-2.58464 C 264.63171,235.5122 273.52073,238 276.74388,238 281.74148,238 284,236.43276 284,232.96482 284,230.04779 284.08625,230 289.35078,230 c 2.94292,0 6.77567,0.49672 8.51721,1.10383 l 3.16643,1.10382 -0.63292,6.1777 c -0.73519,7.17586 -0.51102,7.47378 7.5985,10.09851 3.025,0.97907 7.60423,2.58197 10.17607,3.56199 3.73924,1.42488 4.77725,1.51819 5.1811,0.46577 C 323.99985,250.8368 323.15898,250 320.83333,250 318.88263,250 315,246.67204 315,245 c 0,-0.55 1.40937,-1 3.13192,-1 6.89142,0 14.1617,-14.26636 12.36733,-24.26822 -0.41755,-2.32748 -0.81321,-5.8903 -0.87922,-7.91739 -0.11044,-3.39108 -0.39973,-3.73697 -3.62003,-4.32826 -3.66655,-0.67324 -9,-4.92413 -9,-7.17322 0,-0.7221 1.06842,-1.31291 2.37427,-1.31291 3.77903,0 10.87331,-2.86302 13.62373,-5.49808 1.57148,-1.50558 5.10385,-3.01815 9.34588,-4.00195 3.75075,-0.86985 8.59384,-2.29148 10.76241,-3.15918 5.73956,-2.29651 15.07293,-1.4605 18.38001,1.64634 2.68319,2.52072 3.04027,4.00489 1.63037,6.77644 -0.48583,0.95504 -1.48647,3.08643 -2.22364,4.73643 -0.73718,1.65 -2.15253,4.08953 -3.14524,5.42117 -1.17996,1.58284 -1.72502,3.83347 -1.57415,6.5 0.2255,3.98583 -1.24325,11.64724 -3.54647,18.49926 -0.91754,2.72968 -1.98474,3.69876 -5.28455,4.7987 -4.07261,1.35753 -5.29557,3.10836 -5.32897,7.62913 -0.0283,3.836 -15.68617,14.64839 -21.2166,14.65095 -0.93662,4.3e-4 -2.89704,0.54486 -4.35649,1.20983 -2.47415,1.12729 -2.62425,1.56236 -2.22017,6.43504 0.40071,4.83197 0.25447,5.27091 -1.93949,5.82156 -1.30508,0.32755 -2.80218,0.33022 -3.32689,0.006 -1.64984,-1.01966 -1.03157,-6.8321 1.09835,-10.32571 3.02321,-4.95882 1.87835,-5.88934 -2.34513,-1.90609 -3.25401,3.06893 -3.70723,4.07067 -3.70723,8.19404 0,2.58371 -0.46282,5.56245 -1.02849,6.61942 -1.63594,3.05677 -11.35614,8.73255 -17.82655,10.4092 -6.67805,1.73045 -32.35643,2.01846 -37.87188,0.42476 z m -37.26821,-6.86303 c -1.28684,-0.81352 -1.22727,-1.14106 0.42762,-2.35115 1.88653,-1.37946 1.88173,-1.4581 -0.25487,-4.17434 C 218.97993,268.97606 218,266.91926 218,265.92801 c 0,-1.48005 0.58934,-1.70663 3.29639,-1.26734 2.21415,0.35931 3.69614,0.0533 4.51398,-0.93218 1.03467,-1.2467 0.44776,-1.56924 -3.90641,-2.14684 -9.93406,-1.3178 -11.81389,-4.2389 -12.62523,-19.61863 -0.89137,-16.89639 1.43319,-21.22694 12.02809,-22.40782 3.40625,-0.37965 7.99468,-1.58421 10.19651,-2.6768 l 4.00333,-1.98652 5.7396,2.53832 c 3.15678,1.39608 6.72393,3.67041 7.92701,5.05406 1.20307,1.38366 2.78125,2.51574 3.50707,2.51574 2.7964,0 1.14636,1.94189 -2.18034,2.56598 -3.87937,0.72777 -4.26967,1.52149 -1.909,3.88216 1.29672,1.29672 1.3892,2.1699 0.5,4.72066 -2.4442,7.01144 0.22221,17.8312 4.3943,17.8312 0.83309,0 1.5147,0.45 1.5147,1 0,0.55 -0.5625,1.00127 -1.25,1.00282 -6.16498,0.0139 -19.77228,2.50135 -22.25,4.06737 -1.98201,1.25271 -2.43367,1.90183 -1.33104,1.91296 2.4293,0.0245 7.81733,3.30693 7.82472,4.76685 0.003,0.6875 -0.44368,1.25 -0.99368,1.25 -0.55,0 -1,2.25 -1,5 l 0,5 -7.25,-0.0153 c -3.9875,-0.008 -7.92281,-0.44066 -8.74513,-0.96052 z M 189.25,243.83406 C 185.50776,242.99601 185,242.5529 185,240.12515 185,236.80861 191.00992,231 194.4414,231 c 4.13613,0 5.49773,2.79831 4.25758,8.75 -1.20742,5.79459 -1.41332,5.88359 -9.44898,4.08406 z M 305.55534,234.25 c -1.0401,-10.36027 -0.96815,-10.25 -6.68847,-10.25 -9.00355,0 -9.8926,-1.41354 -7.66679,-12.1898 l 1.20007,-5.8102 11.54993,0.0775 c 14.916,0.1001 20.9888,1.96926 22.74348,7.00031 1.77314,5.08398 1.64913,18.98792 -0.19281,21.61766 C 323.61204,238.81967 318.6831,241 312.24846,241 l -6.01547,0 -0.67765,-6.75 z M 258.75,213.9199 c -2.82576,-1.64585 -2.23462,-6.94359 1.19363,-10.69704 1.619,-1.77257 3.3065,-3.22411 3.75,-3.22564 0.4435,-0.002 2.83137,1.01097 5.30637,2.25 7.48416,3.7467 7.72108,5.17776 1.58652,9.58326 -4.50543,3.23556 -8.62132,3.96211 -11.83652,2.08942 z M 345,164.92308 C 345,163.1264 350.71879,158 352.72308,158 354.6421,158 357,159.76418 357,161.2 c 0,0.44 -0.60526,0.8 -1.34501,0.8 -0.73976,0 -2.1595,0.9 -3.15499,2 -1.897,2.09616 -7.5,2.78576 -7.5,0.92308 z m -63.5,-17.6258 c -4.33681,-1.1113 -5.57191,-4.69147 -3.84445,-11.1439 0.5398,-2.01626 1.06532,-2.25921 3.73288,-1.72569 4.42386,0.88477 6.41814,3.40296 6.78886,8.57231 0.3002,4.18615 0.14835,4.5108 -2.17729,4.65489 -1.375,0.0852 -3.4,-0.0757 -4.5,-0.35761 z M 351.5,124 c -0.7292,-1.17987 0.21667,-3 1.55902,-3 0.51754,0 0.94098,0.9 0.94098,2 0,2.10908 -1.45488,2.69104 -2.5,1 z m -47.25,-18.66228 c -1.85296,-0.74769 -1.51924,-2.12326 0.81866,-3.37447 1.73298,-0.92746 2.45546,-0.68976 4.45226,1.46482 L 311.9045,106 l -3.20225,-0.079 c -1.76124,-0.0434 -3.76475,-0.30592 -4.45225,-0.58333 z"
       id="path3853"
       inkscape:connector-curvature="0" />
    <path
       style="fill:#000000"
       d="M 245,333.56257 C 211.80484,327.64637 186.09285,314.16953 161.96166,290.03834 143.50864,271.58532 132.10303,253.50252 124.49924,230.64427 118.32893,212.09531 117.5,206.09743 117.5,180 c 0,-26.09743 0.82893,-32.09531 6.99924,-50.64427 7.60379,-22.85825 19.0094,-40.941046 37.46242,-59.39407 C 180.41468,51.508637 198.49748,40.103033 221.35573,32.49924 239.90469,26.328931 245.90257,25.5 272,25.5 c 26.09743,0 32.09531,0.828931 50.64427,6.99924 22.85825,7.603793 40.94105,19.009397 59.39407,37.46242 18.45302,18.453024 29.85863,36.53582 37.46242,59.39407 C 425.67107,147.90469 426.5,153.90257 426.5,180 c 0,18.89574 -0.35509,25.16537 -1.81237,32 -4.25937,19.97634 -12.61138,39.6171 -24.026,56.5 -7.99764,11.82898 -28.33265,32.16399 -40.16163,40.16163 -16.45188,11.1232 -35.90086,19.49175 -55.5,23.88067 -10.16742,2.27683 -49.22323,2.94095 -60,1.02027 z m 58,-4.0296 c 30.21123,-6.72776 54.71082,-20.17102 76.53638,-41.99659 17.92448,-17.92447 29.43898,-36.26953 36.96438,-58.89211 C 422.5614,210.42498 423.5,203.9018 423.5,180 c 0,-23.9018 -0.9386,-30.42498 -6.99924,-48.64427 -7.5254,-22.62258 -19.0399,-40.967635 -36.96438,-58.892112 C 357.40594,50.333174 332.56685,36.829854 302,30.312375 c -12.17761,-2.596517 -47.82239,-2.596517 -60,0 -30.56685,6.517479 -55.40594,20.020799 -77.53638,42.151243 C 142.33317,94.594062 128.82985,119.43315 122.31237,150 c -2.59651,12.17761 -2.59651,47.82239 0,60 6.51748,30.56685 20.0208,55.40594 42.15125,77.53638 23.59706,23.59706 49.57972,37.14272 82.53638,43.02907 10.555,1.88521 45.81747,1.23507 56,-1.03248 z"
       id="path3851"
       inkscape:connector-curvature="0" />
  </g>
  <path
     style="fill:none;stroke:#000000;stroke-width:1.01250005"
     d="m 513.78209,241.95744 c 8.63663,10.71225 16.59488,28.23862 4.12088,39.47737 -5.36625,4.83975 -16.443,7.99875 -23.51025,9.37575 -7.84688,1.539 -15.876,2.16675 -23.8545,2.25788 l -18.25538,0 -19.79437,-1.91363 c -33.86813,-2.93625 -73.90238,-12.11962 -106.60613,-21.36375 l -7.0875,-1.5795 -7.0875,-2.4705 -7.0875,-1.5795 -11.1375,-3.91837 -10.125,-2.74388 -41.5125,-15.13687 -33.32137,-12.17025 -7.21913,-3.62475 -11.097,-4.18163 c -25.93012,-11.24887 -56.72026,-25.54537 -81,-39.852 C 82.993712,167.08306 44.032711,143.33994 25.919087,119.15131 15.662462,105.45219 8.5648367,87.460058 27.366962,76.980681"
     id="Selection" />
  <g
     id="g6500"
     transform="translate(31.71554,124.01267)">
    <path
       style="fill:#fefefe"
       d="M 5.7625707,23.434612 C -1.9600321,19.244372 -1.8321375,5.5501557 5.967267,1.5169269 14.979248,-3.1433497 25,2.6392487 25,12.5 25,22.366344 14.643192,28.253185 5.7625707,23.434612 Z"
       id="path6510"
       inkscape:connector-curvature="0" />
    <path
       style="fill:#b17000"
       d="M 5.7625707,23.434612 C -1.9600321,19.244372 -1.8321375,5.5501557 5.967267,1.5169269 14.979248,-3.1433497 25,2.6392487 25,12.5 25,22.366344 14.643192,28.253185 5.7625707,23.434612 Z M 23,12.45034 C 23,7.196681 16.883819,1.9214433 13.125,3.933102 10.683645,5.2396756 10.261823,6.2204956 12.512735,5.3567395 14.573414,4.5659827 17.003304,6.7631719 16.346227,8.8231131 15.930679,10.125859 16.028225,10.196287 16.783428,9.1387718 17.544796,8.0726212 18.153916,8.4519742 19.593367,10.888772 21.585959,14.261961 23,14.910144 23,12.45034 Z"
       id="path6508"
       inkscape:connector-curvature="0" />
    <path
       style="fill:#764a00"
       d="M 5.7625707,23.434612 C -1.9600321,19.244372 -1.8321375,5.5501557 5.967267,1.5169269 14.979248,-3.1433497 25,2.6392487 25,12.5 25,22.366344 14.643192,28.253185 5.7625707,23.434612 Z M 22.01096,18.75 C 24.383805,14.858253 24.540561,10.94601 22.483073,6.967267 19.966301,2.1003657 12.110293,-0.62015118 8.0280251,1.9615178 6.7670715,2.758958 6.8029113,2.9871396 8.2780251,3.5531938 9.2251113,3.9166249 10,4.8408326 10,5.6069888 10,6.373145 10.828771,7 11.841712,7 c 1.26167,0 2.195788,1.1810522 2.965949,3.75 0.668961,2.231386 2.049194,4.169785 3.408287,4.7866 2.320094,1.052957 2.464311,1.596259 1.251155,4.7134 -1.124618,2.889646 0.424308,1.976313 2.543857,-1.5 z"
       id="path6506"
       inkscape:connector-curvature="0" />
    <path
       style="fill:#2e1d00"
       d="M 5.7625707,23.434612 C -1.9600321,19.244372 -1.8321375,5.5501557 5.967267,1.5169269 14.979248,-3.1433497 25,2.6392487 25,12.5 25,22.366344 14.643192,28.253185 5.7625707,23.434612 Z M 18.032733,22.483073 c 1.613377,-0.83431 3.61603,-2.836963 4.45034,-4.45034 C 27.79725,7.7562472 17.243753,-2.7972504 6.967267,2.5169269 4.0841684,4.0078351 0.30150526,9.6348386 1.4262637,10.759597 1.7418187,11.075152 2,10.856478 2,10.273655 2,9.6908326 2.6789078,8.9534563 3.5086839,8.6350413 6.4560497,7.5040309 9.6259491,9.8263244 12.379666,15.133993 l 2.765376,5.330141 -2.183305,1.767933 L 10.778432,24 l 2.160444,0 c 1.188244,0 3.48048,-0.682617 5.093857,-1.516927 z"
       id="path6504"
       inkscape:connector-curvature="0" />
    <path
       style="fill:#000000"
       d="M 5.7625707,23.434612 C -1.9600321,19.244372 -1.8321375,5.5501557 5.967267,1.5169269 14.979248,-3.1433497 25,2.6392487 25,12.5 25,22.366344 14.643192,28.253185 5.7625707,23.434612 Z M 18.032733,22.483073 c 7.724074,-3.994274 7.724074,-15.9718724 0,-19.9661461 C 10.055414,-1.6083051 1,3.9254367 1,12.925589 1,15.780279 1.1482766,15.894124 3.6349792,14.948681 7.3379266,13.540823 11,16.022493 11,19.93972 c 0,1.591487 -0.5625,3.120587 -1.25,3.397999 -0.6875,0.277413 0.234847,0.539913 2.04966,0.583334 1.814813,0.04342 4.619696,-0.60367 6.233073,-1.43798 z"
       id="path6502"
       inkscape:connector-curvature="0" />
  </g>
  <g
     transform="matrix(1.25,0,0,-1.25,132.29139,344.14069)"
     inkscape:label="esper_silouette"
     id="g6888">
    <g
       id="g6890">
      <path
         inkscape:connector-curvature="0"
         id="path6892"
         style="fill:#000000;fill-opacity:1;fill-rule:nonzero;stroke:none"
         d="M 165.66,79.127 C 165.195,77.123 173.75,63.702 176,55.6 c 0,-0.902 1.723,-1.191 8.172,-1.371 2.719,-0.07 5.23,-0.199 8.016,-0.613 9.523,-13.325 6.359,-35.754 5.281,-43.414 -1.489,-9.774 -0.621,-9.403 -21.844,-9.403 l -17.91,0 c -3.059,2.785 -3.797,7.266 -3.317,11.199 L 68,11.998 C 68.516,7.354 67.176,0.573 61.34,0.459 55.848,-0.021 50.301,0.084 44.785,-0.002 c -16.941,0 -17.328,0.04 -18.859,1.801 -6.156,8.145 -3.004,18.942 -3.871,28.352 0.363,7.062 -1.348,15.484 3.117,21.5 1.933,2.254 2.351,2.367 10.223,2.75 7.933,0.387 8.214,0.465 8.476,2.328 2.633,5.523 4.895,11.242 8.106,16.473 1.242,2.074 1.335,3.207 0.703,8.398 -0.407,3.301 -1.082,7.262 -1.504,8.801 -0.422,1.539 -0.77,6.082 -0.77,10.09 -0.008,11.406 2.61,13.382 13.524,10.211 5.453,-1.586 7.64,-2.45 11.269,-4.446 7.606,-4.176 9.836,-4.824 13.199,-3.832 7.899,2.328 7.821,2.16 4.684,10.168 -9.363,18.297 -24.93,32.449 -40.984,44.828 -2.598,2.395 -3.614,1.93 -4.098,-1.882 -0.348,-2.715 -0.699,-3.172 -2.613,-3.391 -1.668,-0.192 -2.504,-0.953 -3.399,-3.094 -1.054,-2.527 -1.426,-2.785 -3.386,-2.32 -4.157,0.976 -4.598,0.894 -4.856,-0.934 -0.316,-2.226 -0.769,-2.246 -3.035,-0.117 l -1.793,1.688 -1.051,-1.688 c -0.762,-1.215 -1.871,-1.684 -3.996,-1.684 -2.617,0 -3.004,0.266 -3.469,2.391 -0.496,2.266 -2.004,4.176 -2.004,2.543 0,-1.004 -3.531,-1.859 -5.136,-1.246 -0.692,0.266 -1.262,1.348 -1.262,2.398 0,1.34 -0.449,1.914 -1.504,1.914 -1.969,0 -3.09,1.446 -3.426,4.403 -0.211,1.863 -0.718,2.461 -2.269,2.668 -3.012,0.402 -3.465,1.285 -2.305,4.496 0.719,1.992 0.789,3.101 0.223,3.48 -2.664,1.774 -1.219,7.028 2.363,8.602 1.496,0.656 1.684,1.285 1.449,4.902 l -0.269,4.145 3.05,0.254 c 2.918,0.242 3.918,1.183 5.36,5.05 0.176,0.469 1.281,0.239 2.672,-0.558 2.265,-1.301 2.426,-1.293 3.711,0.211 0.742,0.859 1.343,1.922 1.343,2.359 0,1.52 3.153,0.778 4.082,-0.961 l 0.938,-1.754 1.418,1.754 c 2.039,2.512 4.234,2.227 5.336,-0.695 0.855,-2.27 1.133,-2.406 3.777,-1.91 2.676,0.5 2.852,0.406 2.852,-1.555 0,-1.855 0.312,-2.09 2.801,-2.09 2.488,0 2.796,-0.23 2.796,-2.109 0,-1.219 0.844,-2.887 2,-3.961 1.981,-1.832 2.75,-5.129 1.204,-5.129 -0.442,0 -0.801,-0.539 -0.801,-1.199 0,-0.66 0.336,-1.199 0.746,-1.199 1.25,0 1.926,-3.34 0.812,-4.028 -0.816,-0.504 -0.82,-1.101 -0.011,-3.051 0.554,-1.335 0.769,-2.808 0.48,-3.273 -0.285,-0.469 -0.012,-0.465 0.324,-0.852 19.063,-14.25 38.067,-31.468 46.325,-54.511 3.996,0.929 7.668,1.398 12.156,1.383 4.414,0.043 8.101,-0.739 12.156,-1.485 8.914,23.156 28.262,40.688 47.332,55.543 -0.262,0.422 -0.023,1.86 0.531,3.195 0.809,1.95 0.805,2.547 -0.011,3.051 -1.114,0.688 -0.438,4.028 0.812,4.028 0.41,0 0.746,0.539 0.746,1.199 0,0.66 -0.359,1.199 -0.801,1.199 -1.546,0 -0.777,3.297 1.204,5.129 1.156,1.074 2,2.742 2,3.961 0,1.812 0.339,2.109 2.398,2.109 2.055,0 2.398,0.301 2.398,2.09 0,1.961 0.176,2.055 2.856,1.555 2.644,-0.496 2.918,-0.36 3.773,1.91 1.129,2.984 4.016,3.312 6.137,0.695 l 1.418,-1.754 0.938,1.754 c 0.941,1.762 3.281,2.442 3.281,0.949 0,-0.437 0.668,-1.468 1.488,-2.285 1.297,-1.297 1.734,-1.351 3.399,-0.429 2.609,1.445 2.917,1.386 3.574,-0.68 0.8,-2.524 2.695,-3.75 5.84,-3.777 l 2.703,-0.028 -0.391,-4.035 c -0.305,-3.172 -0.098,-4.238 0.965,-5 3.578,-2.559 4.652,-7.019 2.101,-8.719 -0.566,-0.379 -0.496,-1.488 0.223,-3.48 1.117,-3.082 0.715,-4.027 -1.902,-4.492 -1.102,-0.196 -1.688,-1.035 -1.871,-2.68 -0.336,-2.949 -1.461,-4.395 -3.426,-4.395 -1.051,0 -1.504,-0.574 -1.504,-1.906 0,-1.297 -0.566,-2.054 -1.777,-2.371 -2.157,-0.562 -5.422,0.168 -5.422,1.211 0,1.633 -1.508,-0.277 -2.004,-2.543 -0.449,-2.043 -0.895,-2.391 -3.067,-2.391 -1.722,0 -2.886,0.547 -3.597,1.684 l -1.051,1.688 -1.793,-1.688 c -2.309,-2.168 -3.516,-2.133 -3.832,0.117 -0.262,1.828 -0.703,1.91 -4.859,0.934 -1.957,-0.461 -2.332,-0.207 -3.387,2.316 -0.785,1.875 -1.797,2.922 -2.996,3.094 -1.449,0.203 -1.895,0.891 -2.215,3.395 -0.469,3.687 -1.355,3.753 -3.738,2.117 -17.453,-13.95 -30.242,-22.836 -42.344,-46.418 -3.281,-7.223 -3.422,-7.289 10.004,-8.824 1.484,0.136 8.25,4.777 12.879,6.003 2.418,0.747 5.758,1.856 7.414,2.469 5.691,2.106 10.406,1.246 11.812,-2.148 1.067,-9.891 0.086,-19.551 -2.367,-29.61 z" />
    </g>
  </g>
</svg>
