<?xml version="1.0" encoding="UTF-8" standalone="no"?>
<!-- Created with Inkscape (http://www.inkscape.org/) -->

<svg
   xmlns:dc="http://purl.org/dc/elements/1.1/"
   xmlns:cc="http://creativecommons.org/ns#"
   xmlns:rdf="http://www.w3.org/1999/02/22-rdf-syntax-ns#"
   xmlns:svg="http://www.w3.org/2000/svg"
   xmlns="http://www.w3.org/2000/svg"
   xmlns:sodipodi="http://sodipodi.sourceforge.net/DTD/sodipodi-0.dtd"
   xmlns:inkscape="http://www.inkscape.org/namespaces/inkscape"
   id="svg3986"
   version="1.1"
   inkscape:version="0.91 r13725"
   width="25"
   height="25"
   viewBox="0 0 25 25"
   sodipodi:docname="logo_planet.svg">
  <metadata
     id="metadata3992">
    <rdf:RDF>
      <cc:Work
         rdf:about="">
        <dc:format>image/svg+xml</dc:format>
        <dc:type
           rdf:resource="http://purl.org/dc/dcmitype/StillImage" />
        <dc:title></dc:title>
      </cc:Work>
    </rdf:RDF>
  </metadata>
  <defs
     id="defs3990" />
  <sodipodi:namedview
     pagecolor="#ffffff"
     bordercolor="#666666"
     borderopacity="1"
     objecttolerance="10"
     gridtolerance="10"
     guidetolerance="10"
     inkscape:pageopacity="0"
     inkscape:pageshadow="2"
     inkscape:window-width="1598"
     inkscape:window-height="879"
     id="namedview3988"
     showgrid="false"
     inkscape:zoom="18.88"
     inkscape:cx="18.44512"
     inkscape:cy="12.110905"
     inkscape:window-x="0"
     inkscape:window-y="19"
     inkscape:window-maximized="1"
     inkscape:current-layer="svg3986" />
  <g
     id="g6500">
    <path
       style="fill:#fefefe"
       d="M 5.7625707,23.434612 C -1.9600321,19.244372 -1.8321375,5.5501557 5.967267,1.5169269 14.979248,-3.1433497 25,2.6392487 25,12.5 25,22.366344 14.643192,28.253185 5.7625707,23.434612 Z"
       id="path6510"
       inkscape:connector-curvature="0" />
    <path
       style="fill:#b17000"
       d="M 5.7625707,23.434612 C -1.9600321,19.244372 -1.8321375,5.5501557 5.967267,1.5169269 14.979248,-3.1433497 25,2.6392487 25,12.5 25,22.366344 14.643192,28.253185 5.7625707,23.434612 Z M 23,12.45034 C 23,7.196681 16.883819,1.9214433 13.125,3.933102 10.683645,5.2396756 10.261823,6.2204956 12.512735,5.3567395 14.573414,4.5659827 17.003304,6.7631719 16.346227,8.8231131 15.930679,10.125859 16.028225,10.196287 16.783428,9.1387718 17.544796,8.0726212 18.153916,8.4519742 19.593367,10.888772 21.585959,14.261961 23,14.910144 23,12.45034 Z"
       id="path6508"
       inkscape:connector-curvature="0" />
    <path
       style="fill:#764a00"
       d="M 5.7625707,23.434612 C -1.9600321,19.244372 -1.8321375,5.5501557 5.967267,1.5169269 14.979248,-3.1433497 25,2.6392487 25,12.5 25,22.366344 14.643192,28.253185 5.7625707,23.434612 Z M 22.01096,18.75 C 24.383805,14.858253 24.540561,10.94601 22.483073,6.967267 19.966301,2.1003657 12.110293,-0.62015118 8.0280251,1.9615178 6.7670715,2.758958 6.8029113,2.9871396 8.2780251,3.5531938 9.2251113,3.9166249 10,4.8408326 10,5.6069888 10,6.373145 10.828771,7 11.841712,7 c 1.26167,0 2.195788,1.1810522 2.965949,3.75 0.668961,2.231386 2.049194,4.169785 3.408287,4.7866 2.320094,1.052957 2.464311,1.596259 1.251155,4.7134 -1.124618,2.889646 0.424308,1.976313 2.543857,-1.5 z"
       id="path6506"
       inkscape:connector-curvature="0" />
    <path
       style="fill:#2e1d00"
       d="M 5.7625707,23.434612 C -1.9600321,19.244372 -1.8321375,5.5501557 5.967267,1.5169269 14.979248,-3.1433497 25,2.6392487 25,12.5 25,22.366344 14.643192,28.253185 5.7625707,23.434612 Z M 18.032733,22.483073 c 1.613377,-0.83431 3.61603,-2.836963 4.45034,-4.45034 C 27.79725,7.7562472 17.243753,-2.7972504 6.967267,2.5169269 4.0841684,4.0078351 0.30150526,9.6348386 1.4262637,10.759597 1.7418187,11.075152 2,10.856478 2,10.273655 2,9.6908326 2.6789078,8.9534563 3.5086839,8.6350413 6.4560497,7.5040309 9.6259491,9.8263244 12.379666,15.133993 l 2.765376,5.330141 -2.183305,1.767933 L 10.778432,24 l 2.160444,0 c 1.188244,0 3.48048,-0.682617 5.093857,-1.516927 z"
       id="path6504"
       inkscape:connector-curvature="0" />
    <path
       style="fill:#000000"
       d="M 5.7625707,23.434612 C -1.9600321,19.244372 -1.8321375,5.5501557 5.967267,1.5169269 14.979248,-3.1433497 25,2.6392487 25,12.5 25,22.366344 14.643192,28.253185 5.7625707,23.434612 Z M 18.032733,22.483073 c 7.724074,-3.994274 7.724074,-15.9718724 0,-19.9661461 C 10.055414,-1.6083051 1,3.9254367 1,12.925589 1,15.780279 1.1482766,15.894124 3.6349792,14.948681 7.3379266,13.540823 11,16.022493 11,19.93972 c 0,1.591487 -0.5625,3.120587 -1.25,3.397999 -0.6875,0.277413 0.234847,0.539913 2.04966,0.583334 1.814813,0.04342 4.619696,-0.60367 6.233073,-1.43798 z"
       id="path6502"
       inkscape:connector-curvature="0" />
  </g>
</svg>
