<?xml version="1.0" encoding="UTF-8" standalone="no"?>
<!DOCTYPE svg PUBLIC "-//W3C//DTD SVG 20010904//EN"
              "http://www.w3.org/TR/2001/REC-SVG-20010904/DTD/svg10.dtd">

<svg xmlns="http://www.w3.org/2000/svg"
     width="7.5in" height="5in"
     viewBox="0 0 540 360">
  <path id="Selection"
        fill="none" stroke="black" stroke-width="1"
        d="M 245.72,93.83
           C 245.72,93.83 273.00,100.78 273.00,100.78
             273.00,100.78 280.00,103.22 280.00,103.22
             280.00,103.22 287.00,104.78 287.00,104.78
             287.00,104.78 299.00,108.96 299.00,108.96
             299.00,108.96 308.00,111.36 308.00,111.36
             308.00,111.36 348.00,125.95 348.00,125.95
             348.00,125.95 380.96,137.95 380.96,137.95
             380.96,137.95 389.04,141.91 389.04,141.91
             389.04,141.91 398.00,145.23 398.00,145.23
             424.32,156.35 450.88,168.87 475.72,183.05
             504.63,199.56 540.62,221.32 561.58,247.29
             570.11,257.87 577.97,275.18 565.65,286.28
             560.35,291.06 549.41,294.18 542.43,295.54
             534.68,297.06 526.75,297.68 518.87,297.77
             518.87,297.77 500.84,297.77 500.84,297.77
             500.84,297.77 481.29,295.88 481.29,295.88
             447.84,292.98 408.30,283.91 376.00,274.78
             376.00,274.78 369.00,273.22 369.00,273.22
             369.00,273.22 362.00,270.78 362.00,270.78
             362.00,270.78 355.00,269.22 355.00,269.22
             355.00,269.22 344.00,265.35 344.00,265.35
             344.00,265.35 334.00,262.64 334.00,262.64
             334.00,262.64 293.00,247.69 293.00,247.69
             293.00,247.69 260.09,235.67 260.09,235.67
             260.09,235.67 252.96,232.09 252.96,232.09
             252.96,232.09 242.00,227.96 242.00,227.96
             216.39,216.85 185.98,202.73 162.00,188.60
             136.11,173.34 97.63,149.89 79.74,126.00
             69.61,112.47 62.60,94.70 81.17,84.35
             84.64,82.42 88.29,80.98 92.11,79.93
             99.28,77.97 106.60,77.32 113.96,76.56
             153.89,73.16 206.81,84.24 245.72,93.83 Z" />
</svg>
