<?xml version="1.0" encoding="UTF-8" standalone="no"?>
<!-- Created with Inkscape (http://www.inkscape.org/) -->

<svg
   xmlns:dc="http://purl.org/dc/elements/1.1/"
   xmlns:cc="http://creativecommons.org/ns#"
   xmlns:rdf="http://www.w3.org/1999/02/22-rdf-syntax-ns#"
   xmlns:svg="http://www.w3.org/2000/svg"
   xmlns="http://www.w3.org/2000/svg"
   xmlns:sodipodi="http://sodipodi.sourceforge.net/DTD/sodipodi-0.dtd"
   xmlns:inkscape="http://www.inkscape.org/namespaces/inkscape"
   id="svg2"
   version="1.1"
   inkscape:version="0.91 r13725"
   width="274"
   height="242"
   viewBox="0 0 274 242"
   sodipodi:docname="esper_silouette.svg">
  <metadata
     id="metadata8">
    <rdf:RDF>
      <cc:Work
         rdf:about="">
        <dc:format>image/svg+xml</dc:format>
        <dc:type
           rdf:resource="http://purl.org/dc/dcmitype/StillImage" />
        <dc:title></dc:title>
      </cc:Work>
    </rdf:RDF>
  </metadata>
  <defs
     id="defs6" />
  <sodipodi:namedview
     pagecolor="#ffffff"
     bordercolor="#666666"
     borderopacity="1"
     objecttolerance="10"
     gridtolerance="10"
     guidetolerance="10"
     inkscape:pageopacity="0"
     inkscape:pageshadow="2"
     inkscape:window-width="1598"
     inkscape:window-height="879"
     id="namedview4"
     showgrid="false"
     inkscape:zoom="1.3791504"
     inkscape:cx="221.87026"
     inkscape:cy="99.139578"
     inkscape:window-x="0"
     inkscape:window-y="19"
     inkscape:window-maximized="0"
     inkscape:current-layer="svg2" />
  <path
     id="path4187"
     style="fill:#000000"
     d="m 207.07333,143.09055 c -0.57684,2.50504 10.11403,19.28377 12.92655,29.40838 1.2e-4,1.12945 2.15288,1.49117 10.21305,1.71609 3.40267,0.0851 6.54066,0.24855 10.02066,0.76565 11.90267,16.65531 7.94829,44.6906 6.60051,54.26592 C 244.97412,241.46652 246.05773,241 219.53363,241 l -22.38847,0 c -3.82389,-3.48217 -4.74712,-9.08299 -4.1448,-14 L 139,227 85,227 c 0.642504,5.80811 -1.029423,14.28221 -8.324399,14.42791 -6.868435,0.59823 -13.801744,0.46739 -20.69463,0.57213 C 34.806087,242 34.320378,241.9537 32.404854,239.75 c -7.691151,-10.17998 -3.751616,-23.67812 -4.836678,-35.43851 0.453432,-8.82654 -1.684512,-19.35488 3.896296,-26.8731 2.417532,-2.81786 2.941669,-2.9589 12.778232,-3.43839 9.91667,-0.4834 10.268614,-0.58011 10.598107,-2.91224 3.287407,-6.90448 6.118004,-14.05287 10.130748,-20.58776 1.550719,-2.59515 1.668912,-4.01212 0.875835,-10.5 -0.504238,-4.125 -1.348672,-9.075 -1.876519,-11 -0.527846,-1.925 -0.962231,-7.60181 -0.965298,-12.61514 -0.0087,-14.25555 3.265172,-16.726507 16.906531,-12.76011 6.816322,1.98193 9.548777,3.05893 14.087892,5.55275 9.50812,5.22382 12.29314,6.03283 16.5,4.79305 9.86989,-2.90872 9.77366,-2.69966 5.85046,-12.71003 C 104.64738,78.390332 85.189405,60.698324 65.1214,45.224509 61.874277,42.231221 60.607465,42.813414 60,47.578168 c -0.432542,3.392717 -0.873032,3.964717 -3.264935,4.239696 -2.085378,0.239739 -3.129403,1.190156 -4.247854,3.866987 -1.319729,3.158556 -1.785782,3.477764 -4.235065,2.900671 C 43.058334,57.36177 42.505549,57.467796 42.180933,59.75 41.784695,62.535747 41.2221,62.55728 38.3884,59.895158 l -2.240502,-2.104843 -1.314496,2.104843 C 33.883932,61.415502 32.497,62 29.838908,62 26.566251,62 26.086254,61.669198 25.502519,59.011468 24.881492,56.183954 23,53.793936 23,55.832575 23,57.088339 18.583442,58.161118 16.579463,57.392119 15.710758,57.058766 15,55.709167 15,54.393011 15,52.718687 14.436119,52 13.122445,52 10.66041,52 9.2555377,50.196341 8.8384853,46.5 8.5757555,44.171422 7.9404815,43.425097 6,43.165324 2.2349149,42.66129 1.6691065,41.557066 3.1199869,37.544727 4.020385,35.054721 4.1088491,33.669248 3.3976979,33.19538 0.07006972,30.978048 1.8745451,24.409289 6.3512969,22.443512 8.2236248,21.621359 8.4566429,20.833155 8.1629164,16.315557 L 7.8258327,11.131114 11.639923,10.815557 C 15.285709,10.513925 16.538269,9.3335903 18.341936,4.5 c 0.218407,-0.5853037 1.60178,-0.2948663 3.335869,0.7003616 2.83291,1.625863 3.036312,1.6144089 4.642456,-0.261431 C 27.244117,3.8599447 28,2.532282 28,1.9885691 28,0.09030713 31.939282,1.0180307 33.101713,3.1900517 l 1.17208,2.1900517 1.773396,-2.1900517 c 2.545416,-3.14345612 5.289193,-2.78652337 6.668426,0.867483 1.070265,2.835454 1.413041,3.0089554 4.719238,2.3887091 C 50.78228,5.8182627 51,5.9368869 51,8.3887091 51,10.706375 51.393555,11 54.5,11 c 3.114595,0 3.5,0.290191 3.5,2.635329 0,1.526506 1.051884,3.610182 2.5,4.952251 C 62.9713,20.877904 63.935545,25 62,25 c -0.55,0 -1,0.675 -1,1.5 0,0.825 0.419676,1.5 0.932612,1.5 1.565904,0 2.407197,4.171953 1.014823,5.032487 -1.019089,0.629832 -1.021179,1.375266 -0.01069,3.814797 0.690743,1.667601 0.960995,3.509163 0.60056,4.092359 -0.360437,0.583196 -0.01856,0.57969 0.403678,1.060357 23.828128,17.815214 47.582627,39.339018 57.906417,68.14089 4.99189,-1.16069 9.58265,-1.74773 15.19378,-1.72852 5.51777,-0.0542 10.12918,0.92462 15.19377,1.8567 11.14599,-28.945923 35.32817,-50.859976 59.16757,-69.426838 -0.32735,-0.52962 -0.03,-2.327347 0.66074,-3.994948 1.01048,-2.439531 1.00839,-3.184965 -0.0107,-3.814797 C 210.66019,32.171953 211.50148,28 213.06739,28 213.58032,28 214,27.325 214,26.5 c 0,-0.825 -0.45,-1.5 -1,-1.5 -1.93555,0 -0.9713,-4.122096 1.5,-6.41242 1.44812,-1.342069 2.5,-3.425745 2.5,-4.952251 C 217,11.373852 217.42559,11 220,11 c 2.56743,0 3,-0.376523 3,-2.6112909 0,-2.4518222 0.21772,-2.5704464 3.56515,-1.9424653 3.30619,0.6202463 3.64897,0.4467449 4.71923,-2.3887091 1.40852,-3.73159059 5.01853,-4.13996931 7.66843,-0.867483 l 1.7734,2.1900517 1.17208,-2.1900517 C 243.07783,0.98605146 246,0.13822748 246,2 c 0,0.55 0.83703,1.8370321 1.86007,2.8600713 1.62124,1.6212353 2.16694,1.689986 4.25,0.5354354 3.25996,-1.8068591 3.64805,-1.7329737 4.46806,0.8506548 1.00127,3.1547385 3.36669,4.6850035 7.2991,4.7220355 l 3.37723,0.0318 -0.48459,5.043206 c -0.38137,3.96897 -0.12519,5.30026 1.20269,6.25 4.47339,3.199512 5.81879,8.777181 2.62974,10.902174 -0.71115,0.473868 -0.62268,1.859341 0.27771,4.349347 1.39325,3.852958 0.89242,5.034895 -2.38001,5.616759 -1.37358,0.244234 -2.10602,1.292561 -2.33849,3.347065 C 265.74415,50.19711 264.33769,52 261.87756,52 260.566,52 260,52.718477 260,54.383369 c 0,1.621046 -0.71002,2.569043 -2.21985,2.963872 C 255.08314,58.052525 251,57.140363 251,55.832575 c 0,-2.038639 -1.88149,0.351379 -2.50252,3.178893 C 247.93655,61.565375 247.37862,62 244.66109,62 c -2.14979,0 -3.60585,-0.681895 -4.49449,-2.104842 l -1.3145,-2.104843 -2.2405,2.104843 c -2.88731,2.712488 -4.39255,2.666897 -4.79253,-0.145158 -0.32462,-2.282204 -0.8774,-2.38823 -6.07122,-1.164478 -2.44889,0.577001 -2.91537,0.257805 -4.23345,-2.896815 -0.98024,-2.346036 -2.248,-3.654094 -3.74785,-3.866988 -1.80847,-0.256698 -2.3676,-1.114345 -2.76655,-4.243551 -0.58735,-4.606977 -1.69633,-4.691647 -4.67435,-2.645536 -21.81554,17.434132 -37.80237,28.54244 -52.92712,58.023218 -4.1027,9.02797 -4.27697,9.10899 12.50369,11.03054 1.85525,-0.17502 10.31269,-5.97356 16.09778,-7.50805 3.025,-0.93026 7.19661,-2.31845 9.27024,-3.08486 7.11425,-2.62943 13.00461,-1.55836 14.76195,2.68423 1.33299,12.36543 0.10849,24.44144 -2.95886,37.01284 z"
     inkscape:connector-curvature="0"
     sodipodi:nodetypes="cccccscccccccccsccssssssccsssssscssssssssssssscsssssscssssssssssssscccccsssssssssssscsssssscssssssssssssscssssssccccscc" />
</svg>
